<svg xmlns="http://www.w3.org/2000/svg" width="26" height="26" viewBox="0 0 26 26"><defs><style>.a{fill:#fff;}.b{fill:#a5a4a4;}</style></defs><rect class="a" width="26" height="26"/><circle class="b" cx="1.27" cy="1.27" r="1.27" transform="translate(11.73 17.951)"/><path class="b" d="M13,0A13,13,0,1,0,26,13,12.993,12.993,0,0,0,13,0Zm0,23.969A10.969,10.969,0,1,1,23.969,13,10.963,10.963,0,0,1,13,23.969Z"/><path class="b" d="M180.063,128.5A4.067,4.067,0,0,0,176,132.563a1.016,1.016,0,0,0,2.031,0,2.031,2.031,0,1,1,2.031,2.031,1.016,1.016,0,0,0-1.016,1.016v2.539a1.016,1.016,0,0,0,2.031,0V136.5a4.063,4.063,0,0,0-1.016-8Z" transform="translate(-167.063 -121.975)"/></svg>