<svg xmlns="http://www.w3.org/2000/svg" width="95" height="95" viewBox="0 0 95 95"><defs><style>.a,.b{fill:#e16a49;}.a{opacity:0;}</style></defs><rect class="a" width="95" height="95"/><g transform="translate(0.986)"><path class="b" d="M567.815,198.7l-24.885-24.885a.851.851,0,0,1,0-1.2l12.363-12.363a.853.853,0,0,1,1.2,0l24.885,24.885a.85.85,0,0,1,0,1.2L569.02,198.7A.851.851,0,0,1,567.815,198.7ZM544.737,173.21l23.681,23.681,11.158-11.159L555.9,162.051Z" transform="translate(-537.244 -154.311)"/><path class="b" d="M575.059,205.872a.852.852,0,0,1,.165-.971l12.363-12.363a.853.853,0,0,1,.985-.159m-.216,1.8-11.5,11.5" transform="translate(-544.653 -161.72)"/><path class="b" d="M535.876,169.5a.851.851,0,0,1,.57-1.453,2.1,2.1,0,0,0,2.023-2.07l.006-.492a3.819,3.819,0,0,1,3.8-3.751h.235a2.1,2.1,0,0,0,2.1-2.115v-.111a3.8,3.8,0,0,1,3.831-3.83,2.1,2.1,0,0,0,2.114-2.178.851.851,0,0,1,1.611-.415l2.866,5.685a.852.852,0,0,1-.158.985l-12.363,12.363a.851.851,0,0,1-.972.165l-5.437-2.618A.841.841,0,0,1,535.876,169.5Zm15.722-13.77a4.011,4.011,0,0,1-.408.5,3.772,3.772,0,0,1-2.756,1.154,2.1,2.1,0,0,0-2.116,2.115v.111a3.8,3.8,0,0,1-3.8,3.831h-.235a2.109,2.109,0,0,0-2.1,2.072l-.006.492a3.8,3.8,0,0,1-1.526,3l3.094,1.49,11.5-11.5Z" transform="translate(-535.626 -152.619)"/><path class="b" d="M546.212,177.093a.852.852,0,0,1,0-1.2l12.363-12.363a.852.852,0,1,1,1.2,1.2l-12.363,12.362A.851.851,0,0,1,546.212,177.093Z" transform="translate(-537.997 -155.064)"/><path class="b" d="M571.943,202.824a.851.851,0,0,1,0-1.2l12.362-12.363a.852.852,0,1,1,1.2,1.2l-12.363,12.363A.851.851,0,0,1,571.943,202.824Z" transform="translate(-543.9 -160.967)"/><path class="b" d="M584.465,208.559a.864.864,0,0,1-.857-.869v-.98a.857.857,0,1,1,1.715,0v.98A.863.863,0,0,1,584.465,208.559Z" transform="translate(-542.432 -164.975)"/><path class="b" d="M585.055,218.437a.864.864,0,0,1-.857-.869v-.98a.857.857,0,1,1,1.715,0v.98A.864.864,0,0,1,585.055,218.437Z" transform="translate(-542.565 -167.083)"/><path class="b" d="M588.648,214.237a.863.863,0,0,1-.857-.869v-.979a.857.857,0,1,1,1.715,0v.979A.863.863,0,0,1,588.648,214.237Z" transform="translate(-543.37 -166.187)"/><path class="b" d="M600.745,209.8a.864.864,0,0,1-.857-.869v-.98a.857.857,0,1,1,1.715,0v.98A.864.864,0,0,1,600.745,209.8Z" transform="translate(-547.067 -164.241)"/><path class="b" d="M579.826,213.568a.863.863,0,0,1-.857-.869v-.98a.857.857,0,1,1,1.714,0v.98A.862.862,0,0,1,579.826,213.568Z" transform="translate(-541.393 -166.044)"/><path class="b" d="M589.213,206.249a.863.863,0,0,1-.857-.868v-.98a.857.857,0,1,1,1.715,0v.98A.863.863,0,0,1,589.213,206.249Z" transform="translate(-543.496 -164.482)"/><path class="b" d="M596.848,205.306a.863.863,0,0,1-.857-.869v-.98a.857.857,0,1,1,1.714,0v.98A.863.863,0,0,1,596.848,205.306Z" transform="translate(-545.207 -164.281)"/><path class="b" d="M593.191,209.8a.864.864,0,0,1-.857-.869v-.98a.857.857,0,1,1,1.715,0v.98A.864.864,0,0,1,593.191,209.8Z" transform="translate(-544.388 -165.241)"/><path class="b" d="M591.98,221.3a.863.863,0,0,1-.857-.869v-.98a.857.857,0,1,1,1.715,0v.98A.863.863,0,0,1,591.98,221.3Z" transform="translate(-544.116 -166.693)"/><path class="b" d="M595.994,215.483a.863.863,0,0,1-.857-.869v-.98a.857.857,0,1,1,1.715,0v.98A.863.863,0,0,1,595.994,215.483Z" transform="translate(-546.002 -165.452)"/><path class="b" d="M600.3,219.06a.864.864,0,0,1-.857-.869v-.98a.857.857,0,1,1,1.715,0v.98A.864.864,0,0,1,600.3,219.06Z" transform="translate(-546.967 -166.216)"/><g transform="translate(21.014 52.763)"><path class="b" d="M599.412,261.931h-30.4c-4.054,0-7.353-3.764-7.353-8.392V235.952a9.057,9.057,0,0,1,1.946-5.687l1.759-2.179a4.929,4.929,0,0,0,1.058-3.095v-.608a4.434,4.434,0,0,1,4.108-4.69h27.366a4.434,4.434,0,0,1,4.108,4.69v.608a4.929,4.929,0,0,0,1.058,3.095l1.759,2.179a9.057,9.057,0,0,1,1.946,5.687v17.587C606.763,258.167,603.465,261.931,599.412,261.931Zm-28.886-40.262a2.567,2.567,0,0,0-2.378,2.715v.608a7.061,7.061,0,0,1-1.516,4.433l-1.76,2.179a6.929,6.929,0,0,0-1.487,4.348v17.587c0,3.538,2.522,6.417,5.622,6.417h30.4c3.1,0,5.622-2.878,5.622-6.417V235.952a6.929,6.929,0,0,0-1.487-4.348l-1.76-2.179a7.061,7.061,0,0,1-1.516-4.433v-.608a2.567,2.567,0,0,0-2.378-2.715Z" transform="translate(-560.242 -219.694)"/><path class="b" d="M594.22,258.06H577.956c-4.365,0-7.915-4.053-7.915-9.035s3.551-9.036,7.915-9.036H594.22c4.365,0,7.915,4.053,7.915,9.036S598.585,258.06,594.22,258.06Zm-16.264-16.1c-3.41,0-6.185,3.168-6.185,7.061s2.775,7.061,6.185,7.061H594.22c3.41,0,6.186-3.168,6.186-7.061s-2.775-7.061-6.186-7.061Z" transform="translate(-562.121 -224.024)"/><path class="b" d="M595.33,231.933H567a1,1,0,0,1,0-1.975H595.33a1,1,0,0,1,0,1.975Z" transform="translate(-561.246 -221.884)"/><path class="b" d="M609.4,272.852H560.7a1,1,0,0,1,0-1.975h48.7a1,1,0,0,1,0,1.975Z" transform="translate(-559.834 -230.615)"/></g><g transform="translate(49.626 0.359)"><path class="b" d="M556.5,198.7l24.885-24.885a.851.851,0,0,0,0-1.2L569.02,160.245a.853.853,0,0,0-1.2,0L542.931,185.13a.85.85,0,0,0,0,1.2L555.293,198.7A.851.851,0,0,0,556.5,198.7Zm23.078-25.486-23.681,23.681-11.158-11.159,23.681-23.681Z" transform="translate(-542.681 -154.311)"/><path class="b" d="M588.488,205.872a.852.852,0,0,0-.165-.971L575.96,192.539a.853.853,0,0,0-.985-.159m.216,1.8,11.5,11.5" transform="translate(-574.506 -161.72)"/><path class="b" d="M554.878,169.5a.851.851,0,0,0-.57-1.453,2.1,2.1,0,0,1-2.023-2.07l-.006-.492a3.819,3.819,0,0,0-3.8-3.751h-.235a2.1,2.1,0,0,1-2.1-2.115v-.111a3.8,3.8,0,0,0-3.831-3.83,2.1,2.1,0,0,1-2.114-2.178.851.851,0,0,0-1.611-.415l-2.866,5.685a.852.852,0,0,0,.158.985l12.362,12.363a.852.852,0,0,0,.972.165l5.436-2.618A.841.841,0,0,0,554.878,169.5Zm-15.722-13.77a4.017,4.017,0,0,0,.408.5,3.771,3.771,0,0,0,2.756,1.154,2.1,2.1,0,0,1,2.116,2.115v.111a3.8,3.8,0,0,0,3.8,3.831h.235a2.109,2.109,0,0,1,2.1,2.072l.006.492a3.8,3.8,0,0,0,1.527,3l-3.094,1.49-11.5-11.5Z" transform="translate(-510.741 -152.619)"/><path class="b" d="M559.779,177.093a.852.852,0,0,0,0-1.2l-12.362-12.363a.852.852,0,0,0-1.2,1.2l12.363,12.362A.851.851,0,0,0,559.779,177.093Z" transform="translate(-523.606 -155.064)"/><path class="b" d="M585.509,202.824a.851.851,0,0,0,0-1.2l-12.363-12.363a.852.852,0,0,0-1.2,1.2L584.3,202.824A.851.851,0,0,0,585.509,202.824Z" transform="translate(-569.164 -160.967)"/></g></g></svg>