<svg xmlns="http://www.w3.org/2000/svg" width="60" height="60" viewBox="0 0 60 60"><defs><style>.a{fill:#efb2a2;}.b{fill:#fff;}.c{fill:#1a171b;}.d{fill:#e16a49;}</style></defs><circle class="a" cx="30" cy="30" r="30"/><g transform="translate(-611.674 -330.288)"><g transform="translate(624.674 342.288)"><path class="b" d="M654.43,346.945H651.4a.529.529,0,0,1-.373-.156,13.073,13.073,0,0,0-18.473,0,.53.53,0,0,1-.375.156h-3.028a3.8,3.8,0,0,0-3.8,3.8v21.3a3.807,3.807,0,0,0,3.8,3.8H654.43a3.807,3.807,0,0,0,3.8-3.8v-21.3A3.8,3.8,0,0,0,654.43,346.945Z" transform="translate(-624.293 -341.906)"/><path class="b" d="M659.674,372.426a4.868,4.868,0,0,1-4.863,4.862H629.533a4.866,4.866,0,0,1-4.859-4.862v-21.3a4.866,4.866,0,0,1,4.859-4.861h2.811a14.133,14.133,0,0,1,19.656,0h2.811a4.868,4.868,0,0,1,4.863,4.861Z" transform="translate(-624.674 -342.288)"/><path class="c" d="M654.812,346.265H652a14.133,14.133,0,0,0-19.656,0h-2.811a4.866,4.866,0,0,0-4.859,4.861v21.3a4.866,4.866,0,0,0,4.859,4.862h25.278a4.868,4.868,0,0,0,4.863-4.862v-21.3A4.868,4.868,0,0,0,654.812,346.265Zm3.8,26.161a3.807,3.807,0,0,1-3.8,3.8H629.533a3.807,3.807,0,0,1-3.8-3.8v-21.3a3.8,3.8,0,0,1,3.8-3.8h3.028a.53.53,0,0,0,.375-.156,13.073,13.073,0,0,1,18.473,0,.53.53,0,0,0,.373.156h3.028a3.8,3.8,0,0,1,3.8,3.8Z" transform="translate(-624.674 -342.288)"/></g><g transform="translate(632.779 345.611)"><path class="d" d="M639.256,344.415a11.145,11.145,0,0,0-9.306,5,.533.533,0,0,0-.041.516l2.651,5.747a.532.532,0,0,0,.481.308h12.427a.53.53,0,0,0,.481-.308l2.651-5.747a.528.528,0,0,0-.041-.516A11.144,11.144,0,0,0,639.256,344.415Zm2.138,10.509h-4.277a2.2,2.2,0,0,1,4.277,0Zm3.734,0H642.48a3.277,3.277,0,0,0-1.786-2.4l.941-2.973a.529.529,0,0,0-1.009-.32l-.947,2.986a3.436,3.436,0,0,0-.422-.03,3.271,3.271,0,0,0-3.224,2.741h-2.651L631,349.759a10.105,10.105,0,0,1,2.592-2.545l.672,1.147a.531.531,0,0,0,.458.259.542.542,0,0,0,.269-.072.531.531,0,0,0,.188-.727l-.678-1.155a10.056,10.056,0,0,1,4.227-1.175v1.3a.53.53,0,1,0,1.061,0v-1.3a10.062,10.062,0,0,1,4.227,1.175l-.68,1.155a.532.532,0,0,0,.189.727.538.538,0,0,0,.269.072.529.529,0,0,0,.458-.259l.673-1.147a10.121,10.121,0,0,1,2.591,2.545Z" transform="translate(-629.861 -344.415)"/></g></g></svg>