<svg xmlns="http://www.w3.org/2000/svg" width="60" height="60" viewBox="0 0 60 60"><defs><style>.a{fill:#efb2a2;}.b{fill:none;}.c{fill:#fff;}.d{fill:#1a171b;}.e{fill:#333;}.f{fill:#e16a49;}</style></defs><circle class="a" cx="30" cy="30" r="30"/><g transform="translate(-2290.733 1599.199)"><line class="b" x2="1.101" y2="1.101" transform="translate(2337.631 -1560.529)"/><path class="c" d="M2426.436-1450.564h0l.413.413Z" transform="translate(-98.13 -106.073)"/><path class="c" d="M2428.412-1460.554l-2,2,.413.413.4.4-.4-.4-.413-.413-.006.006,1.032,1.033a1.421,1.421,0,0,0,2.007,0,1.419,1.419,0,0,0,0-2.006Z" transform="translate(-98.106 -98.083)"/><path class="c" d="M2324.288-1557.692a.432.432,0,0,1-.31.128.429.429,0,0,1-.309-.128.435.435,0,0,1,0-.617l.854-.855-1.876-1.873-.855.853a.439.439,0,0,1-.309.129.439.439,0,0,1-.309-.129.438.438,0,0,1,0-.62l.854-.853-1.876-1.876-.853.855a.445.445,0,0,1-.31.126.447.447,0,0,1-.31-.126.444.444,0,0,1,0-.623l.855-.853-1.876-1.876-.854.855a.434.434,0,0,1-.309.127.436.436,0,0,1-.31-.127.439.439,0,0,1,0-.62l.854-.854-1.875-1.875-.854.853a.437.437,0,0,1-.31.13.437.437,0,0,1-.31-.13.438.438,0,0,1,0-.618l.854-.853-1.327-1.328a3.28,3.28,0,0,1-2.357-.959,3.288,3.288,0,0,1,0-4.644,3.262,3.262,0,0,1,2.322-.961,3.261,3.261,0,0,1,2.321.961,3.276,3.276,0,0,1,.96,2.358l1.326,1.326.855-.854a.436.436,0,0,1,.619,0,.436.436,0,0,1,0,.619l-.853.854,1.875,1.875.854-.853a.437.437,0,0,1,.619,0,.438.438,0,0,1,0,.619l-.854.854,1.875,1.876.855-.855a.438.438,0,0,1,.618,0,.437.437,0,0,1,0,.62l-.854.855,1.876,1.875.854-.854a.438.438,0,0,1,.619,0,.439.439,0,0,1,0,.62l-.855.854,1.876,1.875.854-.854a.437.437,0,0,1,.619,0,.438.438,0,0,1,0,.62l-.853.853,2.337,2.337a5.14,5.14,0,0,0-1.229-5.238l-12.641-12.64a5.092,5.092,0,0,0-3.627-1.5,5.093,5.093,0,0,0-3.628,1.5,5.135,5.135,0,0,0,0,7.254l12.642,12.641a5.14,5.14,0,0,0,5.238,1.23l-2.337-2.337Z" transform="translate(-3.492 -3.496)"/><path class="c" d="M2330.453-1555.886a.438.438,0,0,1,0-.618.436.436,0,0,1,.619,0l12.1,12.1.694-.694-17.47-17.47a.433.433,0,0,1-.126-.341,2.41,2.41,0,0,0-.7-1.881,2.4,2.4,0,0,0-1.7-.706,2.4,2.4,0,0,0-1.7.706,2.413,2.413,0,0,0,0,3.406,2.419,2.419,0,0,0,1.882.7h.031a.442.442,0,0,1,.31.128l17.47,17.471.007-.007-.069-.069.069.069.687-.687Z" transform="translate(-14.178 -14.156)"/><path class="d" d="M2423.344-1453.656l.619.619h0Z" transform="translate(-95.657 -103.6)"/><g transform="translate(2303.733 -1583.199)"><path class="b" d="M2330.453-1555.886a.438.438,0,0,1,0-.618.436.436,0,0,1,.619,0l12.1,12.1.694-.694-17.47-17.47a.433.433,0,0,1-.126-.341,2.41,2.41,0,0,0-.7-1.881,2.4,2.4,0,0,0-1.7-.706,2.4,2.4,0,0,0-1.7.706,2.413,2.413,0,0,0,0,3.406,2.419,2.419,0,0,0,1.882.7h.031a.442.442,0,0,1,.31.128l17.47,17.471.007-.007.687-.687Z" transform="translate(-2317.911 1569.043)"/><path class="b" d="M2324.288-1557.692a.432.432,0,0,1-.31.128.429.429,0,0,1-.309-.128.435.435,0,0,1,0-.617l.854-.855-1.876-1.873-.855.853a.439.439,0,0,1-.309.129.439.439,0,0,1-.309-.129.438.438,0,0,1,0-.62l.854-.853-1.876-1.876-.853.855a.445.445,0,0,1-.31.126.447.447,0,0,1-.31-.126.444.444,0,0,1,0-.623l.855-.853-1.876-1.876-.854.855a.434.434,0,0,1-.309.127.436.436,0,0,1-.31-.127.439.439,0,0,1,0-.62l.854-.854-1.875-1.875-.854.853a.437.437,0,0,1-.31.13.437.437,0,0,1-.31-.13.438.438,0,0,1,0-.618l.854-.853-1.327-1.328a3.28,3.28,0,0,1-2.357-.959,3.288,3.288,0,0,1,0-4.644,3.262,3.262,0,0,1,2.322-.961,3.261,3.261,0,0,1,2.321.961,3.276,3.276,0,0,1,.96,2.358l1.326,1.326.855-.854a.436.436,0,0,1,.619,0,.436.436,0,0,1,0,.619l-.853.854,1.875,1.875.854-.853a.437.437,0,0,1,.619,0,.438.438,0,0,1,0,.619l-.854.854,1.875,1.876.855-.855a.438.438,0,0,1,.618,0,.437.437,0,0,1,0,.62l-.854.855,1.876,1.875.854-.854a.438.438,0,0,1,.619,0,.439.439,0,0,1,0,.62l-.855.854,1.876,1.875.854-.854a.437.437,0,0,1,.619,0,.438.438,0,0,1,0,.62l-.853.853,2.337,2.337a5.14,5.14,0,0,0-1.229-5.238l-12.641-12.64a5.092,5.092,0,0,0-3.627-1.5,5.093,5.093,0,0,0-3.628,1.5,5.135,5.135,0,0,0,0,7.254l12.642,12.641a5.14,5.14,0,0,0,5.238,1.23l-2.337-2.337Z" transform="translate(-2307.225 1579.703)"/><path class="b" d="M2425.963-1460.554l-2,2-.619-.619.619.619-.006.006,1.032,1.033a1.421,1.421,0,0,0,2.007,0,1.419,1.419,0,0,0,0-2.006Z" transform="translate(-2399.39 1485.116)"/><path class="d" d="M2331.958-1558.223l-1.343-1.343-2.7-2.7a6.024,6.024,0,0,0-1.293-6.542l-12.642-12.641a5.958,5.958,0,0,0-4.245-1.751,5.959,5.959,0,0,0-4.246,1.751,6.014,6.014,0,0,0,0,8.493l12.642,12.64a6.022,6.022,0,0,0,6.54,1.294l2.7,2.7,1.342,1.343a2.29,2.29,0,0,0,1.622.67,2.293,2.293,0,0,0,1.622-.67A2.3,2.3,0,0,0,2331.958-1558.223Zm-1.336-.1-1.2-1.2Zm-11.873-2.608-12.642-12.641a5.136,5.136,0,0,1,0-7.254,5.092,5.092,0,0,1,3.627-1.5,5.093,5.093,0,0,1,3.628,1.5l12.64,12.64a5.141,5.141,0,0,1,1.23,5.238l-2.337-2.337.854-.853a.438.438,0,0,0,0-.62.437.437,0,0,0-.618,0l-.854.854-1.876-1.875.855-.854a.439.439,0,0,0,0-.62.437.437,0,0,0-.619,0l-.854.854-1.876-1.874.854-.855a.437.437,0,0,0,0-.62.438.438,0,0,0-.618,0l-.855.855-1.875-1.876.854-.854a.437.437,0,0,0,0-.618.437.437,0,0,0-.619,0l-.854.853-1.875-1.875.853-.854a.436.436,0,0,0,0-.618.436.436,0,0,0-.619,0l-.855.854-1.326-1.326a3.274,3.274,0,0,0-.96-2.358,3.261,3.261,0,0,0-2.321-.961,3.262,3.262,0,0,0-2.322.961,3.288,3.288,0,0,0,0,4.644,3.279,3.279,0,0,0,2.357.959l1.327,1.328-.854.853a.439.439,0,0,0,0,.619.439.439,0,0,0,.31.13.438.438,0,0,0,.31-.13l.854-.853,1.875,1.875-.854.854a.44.44,0,0,0,0,.62.437.437,0,0,0,.31.127.434.434,0,0,0,.309-.127l.854-.856,1.876,1.876-.855.853a.444.444,0,0,0,0,.622.446.446,0,0,0,.31.126.444.444,0,0,0,.31-.126l.854-.855,1.876,1.876-.854.853a.438.438,0,0,0,0,.62.439.439,0,0,0,.309.129.44.44,0,0,0,.309-.129l.855-.853,1.876,1.873-.855.855a.435.435,0,0,0,0,.617.43.43,0,0,0,.309.128.432.432,0,0,0,.31-.128l.854-.853,2.337,2.337A5.14,5.14,0,0,1,2318.749-1560.934Zm12.59,5.337a1.421,1.421,0,0,1-2.007,0l-1.032-1.033.006-.006-.619-.619-.006.007-17.47-17.471a.442.442,0,0,0-.31-.128h-.031a2.418,2.418,0,0,1-1.881-.7,2.412,2.412,0,0,1,0-3.406,2.394,2.394,0,0,1,1.7-.706,2.4,2.4,0,0,1,1.7.706,2.408,2.408,0,0,1,.7,1.881.435.435,0,0,0,.127.341l17.47,17.47-.693.694-12.1-12.1a.436.436,0,0,0-.618,0,.437.437,0,0,0,0,.618l12.1,12.1-.687.687.619.619,2-2,1.033,1.034A1.419,1.419,0,0,1,2331.339-1555.6Z" transform="translate(-2303.733 1583.199)"/></g><g transform="translate(2303.733 -1583.199)"><path class="e" d="M2331.958-1558.223l-1.343-1.343-2.7-2.7a6.024,6.024,0,0,0-1.293-6.542l-12.642-12.641a5.958,5.958,0,0,0-4.245-1.751,5.959,5.959,0,0,0-4.246,1.751,6.014,6.014,0,0,0,0,8.493l12.642,12.64a6.022,6.022,0,0,0,6.54,1.294l2.7,2.7,1.342,1.343a2.29,2.29,0,0,0,1.622.67,2.293,2.293,0,0,0,1.622-.67A2.3,2.3,0,0,0,2331.958-1558.223Zm-2.537-1.3,1.2,1.2.8.8-.8-.8-1.2-1.2-.4-.4Zm-10.672-1.406-12.642-12.641a5.136,5.136,0,0,1,0-7.254,5.092,5.092,0,0,1,3.627-1.5,5.093,5.093,0,0,1,3.628,1.5l12.64,12.64a5.141,5.141,0,0,1,1.23,5.238l-2.337-2.337.854-.853a.438.438,0,0,0,0-.62.437.437,0,0,0-.618,0l-.854.854-1.876-1.875.855-.854a.439.439,0,0,0,0-.62.437.437,0,0,0-.619,0l-.854.854-1.876-1.874.854-.855a.437.437,0,0,0,0-.62.438.438,0,0,0-.618,0l-.855.855-1.875-1.876.854-.854a.437.437,0,0,0,0-.618.437.437,0,0,0-.619,0l-.854.853-1.875-1.875.853-.854a.436.436,0,0,0,0-.618.436.436,0,0,0-.619,0l-.855.854-1.326-1.326a3.274,3.274,0,0,0-.96-2.358,3.261,3.261,0,0,0-2.321-.961,3.262,3.262,0,0,0-2.322.961,3.288,3.288,0,0,0,0,4.644,3.279,3.279,0,0,0,2.357.959l1.327,1.328-.854.853a.439.439,0,0,0,0,.619.439.439,0,0,0,.31.13.438.438,0,0,0,.31-.13l.854-.853,1.875,1.875-.854.854a.44.44,0,0,0,0,.62.437.437,0,0,0,.31.127.434.434,0,0,0,.309-.127l.854-.856,1.876,1.876-.855.853a.444.444,0,0,0,0,.622.446.446,0,0,0,.31.126.444.444,0,0,0,.31-.126l.854-.855,1.876,1.876-.854.853a.438.438,0,0,0,0,.62.439.439,0,0,0,.309.129.44.44,0,0,0,.309-.129l.855-.853,1.876,1.873-.855.855a.435.435,0,0,0,0,.617.43.43,0,0,0,.309.128.432.432,0,0,0,.31-.128l.854-.853,2.337,2.337A5.14,5.14,0,0,1,2318.749-1560.934Zm12.59,5.337a1.421,1.421,0,0,1-2.007,0l-1.032-1.033.006-.006-.619-.619-.006.007-17.47-17.471a.442.442,0,0,0-.31-.128h-.031a2.418,2.418,0,0,1-1.881-.7,2.412,2.412,0,0,1,0-3.406,2.394,2.394,0,0,1,1.7-.706,2.4,2.4,0,0,1,1.7.706,2.408,2.408,0,0,1,.7,1.881.435.435,0,0,0,.127.341l17.47,17.47-.693.694-12.1-12.1a.436.436,0,0,0-.618,0,.437.437,0,0,0,0,.618l12.1,12.1-.687.687.619.619,2-2,1.033,1.034A1.419,1.419,0,0,1,2331.339-1555.6Z" transform="translate(-2303.733 1583.199)"/><g transform="translate(0.875 0.876)"><path class="b" d="M2340.794-1544.17l-17.1-17.1,2-2,.67.67a.432.432,0,0,1-.1-.311,2.41,2.41,0,0,0-.7-1.881,2.4,2.4,0,0,0-1.7-.706,2.4,2.4,0,0,0-1.7.706,2.413,2.413,0,0,0,0,3.406,2.419,2.419,0,0,0,1.882.7h.031a.442.442,0,0,1,.31.128l17.47,17.471.007-.007-.469-.469Z" transform="translate(-2318.785 1568.167)"/><path class="b" d="M2324.288-1557.692a.432.432,0,0,1-.31.128.429.429,0,0,1-.309-.128.435.435,0,0,1,0-.617l.854-.855-1.876-1.873-.855.853a.439.439,0,0,1-.309.129.439.439,0,0,1-.309-.129.438.438,0,0,1,0-.62l.854-.853-1.876-1.876-.853.855a.445.445,0,0,1-.31.126.447.447,0,0,1-.31-.126.444.444,0,0,1,0-.623l.855-.853-1.876-1.876-.854.855a.434.434,0,0,1-.309.127.436.436,0,0,1-.31-.127.439.439,0,0,1,0-.62l.854-.854-1.875-1.875-.854.853a.437.437,0,0,1-.31.13.437.437,0,0,1-.31-.13.438.438,0,0,1,0-.618l.854-.853-1.327-1.328a3.28,3.28,0,0,1-2.357-.959,3.288,3.288,0,0,1,0-4.644,3.262,3.262,0,0,1,2.322-.961,3.261,3.261,0,0,1,2.321.961,3.276,3.276,0,0,1,.96,2.358l1.326,1.326.855-.854a.436.436,0,0,1,.619,0,.436.436,0,0,1,0,.619l-.853.854,1.875,1.875.854-.853a.437.437,0,0,1,.619,0,.438.438,0,0,1,0,.619l-.854.854,1.875,1.876.855-.855a.438.438,0,0,1,.618,0,.437.437,0,0,1,0,.62l-.854.855,1.876,1.875.854-.854a.438.438,0,0,1,.619,0,.439.439,0,0,1,0,.62l-.855.854,1.876,1.875.854-.854a.437.437,0,0,1,.619,0,.438.438,0,0,1,0,.62l-.853.853,2.337,2.337a5.14,5.14,0,0,0-1.229-5.238l-12.641-12.64a5.092,5.092,0,0,0-3.627-1.5,5.093,5.093,0,0,0-3.628,1.5,5.135,5.135,0,0,0,0,7.254l12.642,12.641a5.14,5.14,0,0,0,5.238,1.23l-2.337-2.337Z" transform="translate(-2308.1 1578.827)"/><path class="b" d="M2427-1458.766l-.844-.845-2,2,.325.325.2.2-.2-.2-.325-.325-.188-.188-.619-.619.619.619-.006.006,1.032,1.033a1.421,1.421,0,0,0,2.007,0A1.419,1.419,0,0,0,2427-1458.766Z" transform="translate(-2400.264 1483.486)"/><path class="f" d="M2364.085-1532.91l.189.189,0,0L2363-1534l-17.029-17.029a.338.338,0,0,0,.024.03l17.47,17.47-.693.694-12.1-12.1a.436.436,0,0,0-.618,0,.437.437,0,0,0,0,.618l12.1,12.1-.687.687.619.619Z" transform="translate(-2338.387 1556.596)"/></g></g></g></svg>