<svg xmlns="http://www.w3.org/2000/svg" width="60" height="60" viewBox="0 0 60 60"><defs><style>.a{fill:#efb2a2;}.b,.c{fill:#fff;}.b{opacity:0;}.d{fill:#e16a49;}.e{fill:#333;}</style></defs><circle class="a" cx="30" cy="30" r="30"/><g transform="translate(101 -1111)"><rect class="b" width="34.245" height="34.245" transform="translate(-86.863 1124.644)"/><g transform="matrix(0.899, -0.438, 0.438, 0.899, -92, 1138.505)"><circle class="c" cx="11.576" cy="11.576" r="11.576" transform="translate(0 0)"/><path d="M11.686,23.365a11.686,11.686,0,1,1,8.263-3.422A11.609,11.609,0,0,1,11.686,23.365Zm0-22.419a10.729,10.729,0,1,0,7.594,3.14A10.706,10.706,0,0,0,11.686.946Z" transform="translate(0 0)"/><path d="M11.686,23.365a11.686,11.686,0,1,1,8.263-3.422A11.609,11.609,0,0,1,11.686,23.365Zm0-22.419a10.729,10.729,0,1,0,7.594,3.14A10.706,10.706,0,0,0,11.686.946Z" transform="translate(0 0)"/><path class="d" d="M15.4,16.078a.475.475,0,0,1-.425-.263l-.339-.686A31.235,31.235,0,0,0,.863,1.2L.26.9A.473.473,0,1,1,.688.052l.6.306a32.188,32.188,0,0,1,14.2,14.35l.339.686a.473.473,0,0,1-.424.683Z" transform="translate(6.294 1.127)"/><path class="d" d="M16.061,16.714a.475.475,0,0,1-.425-.263l-.538-1.09A31.225,31.225,0,0,0,1.321,1.436L.259.9A.474.474,0,0,1,.688.052L1.751.591a32.186,32.186,0,0,1,14.2,14.35l.538,1.09a.473.473,0,0,1-.214.634A.479.479,0,0,1,16.061,16.714Z" transform="translate(2.222 4.507)"/><path class="e" d="M1.9.947H.474A.473.473,0,1,1,.474,0H1.9a.473.473,0,0,1,0,.947Z" transform="translate(24.996 11.206)"/><path class="e" d="M3.027.947H.474A.473.473,0,1,1,.474,0H3.027a.473.473,0,1,1,0,.947Z" transform="translate(28.971 11.206)"/><path class="e" d="M1.894.947H.474A.473.473,0,1,1,.474,0H1.894a.473.473,0,1,1,0,.947Z" transform="translate(34.078 11.206)"/><path class="e" d="M1.894.947H.474A.473.473,0,1,1,.474,0H1.894a.473.473,0,1,1,0,.947Z" transform="translate(22.726 4.102)"/><path class="e" d="M3.027.947H.474A.473.473,0,1,1,.474,0H3.027a.473.473,0,1,1,0,.947Z" transform="translate(26.7 4.102)"/><path class="e" d="M1.894.947H.474A.473.473,0,1,1,.474,0H1.894a.473.473,0,1,1,0,.947Z" transform="translate(31.807 4.102)"/><path class="e" d="M11.686,23.365a11.686,11.686,0,1,1,8.263-3.422A11.609,11.609,0,0,1,11.686,23.365Zm0-22.419a10.729,10.729,0,1,0,7.594,3.14A10.7,10.7,0,0,0,11.686.946Z" transform="translate(0 0)"/><path class="d" d="M5.921,11.22a.456.456,0,0,1-.16-.028,8.656,8.656,0,0,1-3.2-2.037A8.7,8.7,0,0,1,.417.329a.473.473,0,0,1,.9.288A7.756,7.756,0,0,0,3.228,8.485,7.719,7.719,0,0,0,6.082,10.3a.473.473,0,0,1-.161.919Z" transform="translate(2.96 8.692)"/><path class="e" d="M1.894.948H.474A.474.474,0,1,1,.474,0H1.894a.474.474,0,1,1,0,.948Z" transform="translate(22.726 18.311)"/><path class="e" d="M3.027.948H.474A.474.474,0,1,1,.474,0H3.027a.474.474,0,0,1,0,.948Z" transform="translate(26.7 18.311)"/><path class="e" d="M1.894.948H.474A.474.474,0,0,1,.474,0H1.894a.474.474,0,0,1,0,.948Z" transform="translate(31.807 18.311)"/></g></g></svg>