<svg xmlns="http://www.w3.org/2000/svg" width="60" height="60" viewBox="0 0 60 60"><defs><style>.a{fill:#efb2a2;}.b{fill:#fff;}.c{fill:#333;}.d{fill:#e16a49;}.e{fill:#1e2235;}</style></defs><circle class="a" cx="30" cy="30" r="30"/><g transform="translate(-2998.952 1972.885)"><path class="b" d="M3033.343-1921.859h-7.172a3.07,3.07,0,0,0-2.577,1.394l-2,3.063a.529.529,0,0,1-.444.24.529.529,0,0,1-.29-.087.53.53,0,0,1-.153-.734l2-3.062a4.127,4.127,0,0,1,3.464-1.873h.512v-1.274h-1.792a1.715,1.715,0,0,1-1.714-1.713v-7.579a1.715,1.715,0,0,1,1.714-1.713h1.792v-1.3h-6.2a.53.53,0,0,1-.53-.53.53.53,0,0,1,.53-.53h6.2v-.819h-7.594v20.888a3.223,3.223,0,0,0,3.22,3.22h11.035a.6.6,0,0,0,.594-.594v-6.406A.6.6,0,0,0,3033.343-1921.859Z" transform="translate(-5.076 -16.143)"/><path class="b" d="M3048.9-1913.2v7.579a.654.654,0,0,0,.654.654h1.792v-8.886h-1.792A.654.654,0,0,0,3048.9-1913.2Z" transform="translate(-29.737 -36.426)"/><path class="b" d="M3117.738-1853.865l4.055.977a3.313,3.313,0,0,1,.65-1.412.53.53,0,0,1,.745-.085.53.53,0,0,1,.085.744,2.228,2.228,0,0,0-.487,1.407,2.254,2.254,0,0,0,2.251,2.243h.008a2.245,2.245,0,0,0,1.754-.851,3.8,3.8,0,0,1-.872-1.015.53.53,0,0,1,.222-.715.53.53,0,0,1,.714.218,3.266,3.266,0,0,0,.923.94,3.783,3.783,0,0,0,1.817.466h.013a3.786,3.786,0,0,0,3.768-3.8,3.775,3.775,0,0,0-1.7-3.143,2.57,2.57,0,0,0-.914-.338.53.53,0,0,1-.435-.61.53.53,0,0,1,.61-.435,3.655,3.655,0,0,1,.571.147,2.572,2.572,0,0,0-.316-1.157,2.575,2.575,0,0,0-2.255-1.333h-.01a2.563,2.563,0,0,0-.822.138,2.747,2.747,0,0,0-.925.7.53.53,0,0,1-.409.191.527.527,0,0,1-.336-.121.529.529,0,0,1-.073-.744,3.993,3.993,0,0,1,.888-.772,2.264,2.264,0,0,0-1.993-1.21h-.008a2.254,2.254,0,0,0-2.243,2.259,2.246,2.246,0,0,0,1.031,1.884.53.53,0,0,1,.157.733.53.53,0,0,1-.733.157,3.324,3.324,0,0,1-.93-.9l-4.8,1.222a.53.53,0,0,1-.131.017.526.526,0,0,1-.114-.014v4.209A.524.524,0,0,1,3117.738-1853.865Zm9.989-6.065a1.964,1.964,0,0,1,1.149.117,1.962,1.962,0,0,1,1.063,1.075,1.963,1.963,0,0,1-.009,1.512,1.961,1.961,0,0,1-1.075,1.063.524.524,0,0,1-.2.039.53.53,0,0,1-.491-.33.53.53,0,0,1,.291-.691.91.91,0,0,0,.5-.493.911.911,0,0,0,0-.7.91.91,0,0,0-.493-.5.914.914,0,0,0-.532-.055.53.53,0,0,1-.623-.416A.53.53,0,0,1,3127.727-1859.93Zm-5,2.9.239-.009a.532.532,0,0,1,.549.51.53.53,0,0,1-.51.549l-.239.009h-.02a.53.53,0,0,1-.529-.51A.53.53,0,0,1,3122.727-1857.029Zm-4.446.16,2.772-.105a.528.528,0,0,1,.55.509.53.53,0,0,1-.509.55l-2.772.106h-.021a.53.53,0,0,1-.529-.51A.53.53,0,0,1,3118.281-1856.869Z" transform="translate(-86.492 -78.142)"/><path class="b" d="M3029.92-1931a1.656,1.656,0,0,1-1.654,1.654h-11.035a4.284,4.284,0,0,1-4.279-4.279v-21.417a.53.53,0,0,1,.53-.53h.248v-.791a1.5,1.5,0,0,1,1.478-1.519h5.188a1.5,1.5,0,0,1,1.478,1.519v.791h.262a.53.53,0,0,1,.53.53v15.983h5.6a1.656,1.656,0,0,1,1.654,1.654Zm13.207,2.972h-.017a4.85,4.85,0,0,1-1.9-.389,3.3,3.3,0,0,1-2.653,1.346h-.012a3.314,3.314,0,0,1-3.279-2.876l-4.268-1.028a.526.526,0,0,1-.227-.121c-.059.03.221.048.151.048a.432.432,0,0,1-.432-.432v-5.181a.432.432,0,0,1,.432-.432c.049,0-.25.01-.207.025a.528.528,0,0,1,.276-.177l4.6-1.172a3.319,3.319,0,0,1-.126-.892,3.315,3.315,0,0,1,3.3-3.323h.012a3.333,3.333,0,0,1,2.988,1.885,3.629,3.629,0,0,1,.678-.066h.013a3.634,3.634,0,0,1,3.183,1.88,3.644,3.644,0,0,1,.45,1.739,3.612,3.612,0,0,1-.031.481,4.831,4.831,0,0,1,1.9,3.824A4.847,4.847,0,0,1,3043.128-1928.03Z"/><path class="b" d="M3029.618-1951.29a.441.441,0,0,0-.418-.459h-5.188a.44.44,0,0,0-.418.459v.791h6.024Z" transform="translate(-8.804 -5.076)"/><path class="c" d="M3028.266-1939.062h-5.6v-15.983a.53.53,0,0,0-.53-.53h-.262v-.791a1.5,1.5,0,0,0-1.478-1.519h-5.188a1.5,1.5,0,0,0-1.478,1.519v.791h-.248a.53.53,0,0,0-.53.53v21.417a4.284,4.284,0,0,0,4.279,4.279h11.035a1.656,1.656,0,0,0,1.654-1.654v-6.406A1.656,1.656,0,0,0,3028.266-1939.062Zm-13.477-17.3a.44.44,0,0,1,.418-.459h5.188a.441.441,0,0,1,.418.459v.791h-6.024ZM3028.861-1931a.6.6,0,0,1-.594.594h-11.035a3.223,3.223,0,0,1-3.22-3.22v-20.888h7.594v.819h-6.2a.53.53,0,0,0-.53.53.53.53,0,0,0,.53.53h6.2v1.3h-1.792a1.715,1.715,0,0,0-1.714,1.713v7.579a1.715,1.715,0,0,0,1.714,1.713h1.792v1.273h-.512a4.127,4.127,0,0,0-3.464,1.874l-2,3.063a.53.53,0,0,0,.154.733.526.526,0,0,0,.29.087.528.528,0,0,0,.444-.24l2-3.062a3.07,3.07,0,0,1,2.577-1.394h7.172a.6.6,0,0,1,.594.594Zm-7.255-19.279v8.886h-1.792a.654.654,0,0,1-.654-.654v-7.579a.655.655,0,0,1,.654-.654Z"/><path class="d" d="M3131.145-1863.648a3.654,3.654,0,0,0,.031-.481,3.635,3.635,0,0,0-.45-1.739,3.633,3.633,0,0,0-3.183-1.881h-.013a3.648,3.648,0,0,0-.678.066,3.332,3.332,0,0,0-2.988-1.885h-.012a3.315,3.315,0,0,0-3.3,3.323,3.321,3.321,0,0,0,.126.892l-4.6,1.171a.525.525,0,0,0-.276.177.43.43,0,0,1,.293.407v.446a.521.521,0,0,0,.114.014.526.526,0,0,0,.131-.017l4.8-1.222a3.323,3.323,0,0,0,.93.9.53.53,0,0,0,.733-.157.53.53,0,0,0-.157-.733,2.246,2.246,0,0,1-1.031-1.884,2.254,2.254,0,0,1,2.243-2.26h.008a2.265,2.265,0,0,1,1.994,1.21,4,4,0,0,0-.888.771.53.53,0,0,0,.073.744.527.527,0,0,0,.337.121.53.53,0,0,0,.408-.191,2.745,2.745,0,0,1,.925-.7,2.554,2.554,0,0,1,.822-.138h.009a2.575,2.575,0,0,1,2.255,1.333,2.574,2.574,0,0,1,.315,1.157,3.675,3.675,0,0,0-.571-.147.53.53,0,0,0-.61.435.53.53,0,0,0,.435.61,2.574,2.574,0,0,1,.914.338,3.776,3.776,0,0,1,1.7,3.143,3.786,3.786,0,0,1-3.768,3.8h-.013a3.782,3.782,0,0,1-1.817-.466,3.271,3.271,0,0,1-.923-.94.53.53,0,0,0-.714-.218.53.53,0,0,0-.222.716,3.811,3.811,0,0,0,.872,1.015,2.245,2.245,0,0,1-1.754.851h-.008a2.255,2.255,0,0,1-2.251-2.243,2.23,2.23,0,0,1,.488-1.407.53.53,0,0,0-.085-.744.53.53,0,0,0-.744.085,3.31,3.31,0,0,0-.65,1.412l-4.055-.977a.523.523,0,0,0-.238,0v.526a.43.43,0,0,1-.237.383.525.525,0,0,0,.227.121l4.268,1.028a3.313,3.313,0,0,0,3.279,2.876h.012a3.3,3.3,0,0,0,2.653-1.346,4.848,4.848,0,0,0,1.9.389h.017a4.847,4.847,0,0,0,4.824-4.859A4.83,4.83,0,0,0,3131.145-1863.648Z" transform="translate(-85.089 -73.065)"/><path class="e" d="M3119.6-1824.884h.021l2.772-.106a.53.53,0,0,0,.509-.55.528.528,0,0,0-.55-.509l-2.772.106a.53.53,0,0,0-.509.55A.53.53,0,0,0,3119.6-1824.884Z" transform="translate(-87.794 -109.067)"/><path class="e" d="M3145.342-1825.347h.02l.239-.009a.53.53,0,0,0,.51-.549.532.532,0,0,0-.549-.51l-.239.009a.53.53,0,0,0-.51.549A.53.53,0,0,0,3145.342-1825.347Z" transform="translate(-109.088 -108.765)"/><path class="e" d="M3174.877-1842.3a.913.913,0,0,1,.532.055.91.91,0,0,1,.493.5.91.91,0,0,1,0,.7.91.91,0,0,1-.5.493.53.53,0,0,0-.291.691.53.53,0,0,0,.491.33.524.524,0,0,0,.2-.039,1.962,1.962,0,0,0,1.075-1.063,1.964,1.964,0,0,0,.009-1.512,1.963,1.963,0,0,0-1.063-1.075,1.964,1.964,0,0,0-1.149-.117.53.53,0,0,0-.417.623A.53.53,0,0,0,3174.877-1842.3Z" transform="translate(-133.436 -94.732)"/><path class="d" d="M3115.109-1836.888a.53.53,0,0,0,.4.385v-.446a.43.43,0,0,0-.293-.407A.53.53,0,0,0,3115.109-1836.888Z" transform="translate(-84.501 -99.713)"/><path class="d" d="M3115.508-1807.52v-.526a.529.529,0,0,0-.4.391.529.529,0,0,0,.164.518A.43.43,0,0,0,3115.508-1807.52Z" transform="translate(-84.5 -123.962)"/></g></svg>