<svg xmlns="http://www.w3.org/2000/svg" xmlns:xlink="http://www.w3.org/1999/xlink" width="99" height="124" viewBox="0 0 99 124"><defs><style>.a,.b{fill:#fff;}.b{opacity:0;}.c,.d{fill:#a5a4a4;}.d{font-size:13px;font-family:NotoSansKR-Medium, Noto Sans KR;font-weight:500;letter-spacing:-0.05em;}.e{filter:url(#a);}</style><filter id="a" x="0" y="0" width="99" height="124" filterUnits="userSpaceOnUse"><feOffset dy="3" input="SourceAlpha"/><feGaussianBlur stdDeviation="4" result="b"/><feFlood flood-opacity="0.161"/><feComposite operator="in" in2="b"/><feComposite in="SourceGraphic"/></filter></defs><g transform="translate(12 9)"><g class="e" transform="matrix(1, 0, 0, 1, -12, -9)"><rect class="a" width="75" height="100" rx="10" transform="translate(12 9)"/></g><g transform="translate(15 12)"><rect class="b" width="44.952" height="44.952"/><g transform="translate(0 0.5)"><path class="c" d="M1668.916,1327.908a.685.685,0,1,0-.08,1.368c.047,0,4.744.275,9.2.309h.005a.685.685,0,0,0,.005-1.37C1673.626,1328.181,1668.963,1327.911,1668.916,1327.908Z" transform="translate(-1656.583 -1308.978)"/><path class="c" d="M1640.568,1280.325h-.016c-5.373.125-11.462.267-13.759-1.422a4.639,4.639,0,0,1-1.727-3.681,5.625,5.625,0,0,1,1.385-3.954c1.916,1.13,4.922,1.485,8.756,1.485,1.032,0,2.124-.026,3.271-.069.714-.027,1.422-.05,2.108-.069a.685.685,0,0,0-.038-1.37c-.69.019-1.4.042-2.122.069-5.2.2-10.273.1-12.12-1.89a3.665,3.665,0,0,1-.779-3.071c.24-2.1,1.711-3.377,4.628-4.006l.007,0a15.31,15.31,0,0,0,4.082-.489,11.246,11.246,0,0,0,5.679,1.415,15.652,15.652,0,0,0,5.549-1.074,12.678,12.678,0,0,0,3.54.519h.042a8.674,8.674,0,0,0,4.568-1.206,5.2,5.2,0,0,1,.608,3.7.685.685,0,0,0,.548.8.7.7,0,0,0,.126.012.686.686,0,0,0,.673-.56,6.614,6.614,0,0,0-.851-4.78,7.742,7.742,0,0,0,1.026-1.134.685.685,0,0,0-1.1-.814,6.581,6.581,0,0,1-5.561,2.613h-.076a11.163,11.163,0,0,1-3.33-.52.683.683,0,0,0-.481.007,13.22,13.22,0,0,1-7.64.816,8.335,8.335,0,0,1-2.8-1.087.685.685,0,0,0-.573-.1c-6.506,1.718-8.485-.846-8.935-1.345-.449-.733-1.859-.263-1.039.893a6.5,6.5,0,0,0,3.068,1.875,5.25,5.25,0,0,0-3.116,4.318,5.008,5.008,0,0,0,1.136,4.158c.02.022.044.041.065.063a7.03,7.03,0,0,0-1.67,4.836,6.116,6.116,0,0,0,1.811,4.355,4.405,4.405,0,0,0-.178,3.992,5.37,5.37,0,0,0,3.2,2.4,5.157,5.157,0,0,1-2.839.489,3.267,3.267,0,0,1-2.183-1.449,7.537,7.537,0,0,1-1.3-5.016,11.005,11.005,0,0,0-.359-3.382c-.206-.676-.444-1.335-.674-1.973-.75-2.075-1.4-3.866-.728-5.455a9.865,9.865,0,0,0,.53-7.592c-.8-2.86-.433-5.084,1.072-6.433a5.443,5.443,0,0,1,5.4-.891c2.274.917,4.863.65,7.862.341q.525-.054,1.067-.108l.178-.017a27.846,27.846,0,0,1,7.921.023l.139.031c2.748.609,4.733,1.049,6.912.058,3.134-1.427,5.376-1.092,6.666.994,1.78,2.88.213,6.944.2,6.983a.651.651,0,0,0,.171.755,4.385,4.385,0,0,1,.964,1.965.685.685,0,0,0,1.326-.344,6.317,6.317,0,0,0-1.046-2.272c.4-1.211,1.357-4.89-.447-7.808-1.663-2.689-4.646-3.229-8.4-1.52-1.762.8-3.467.424-6.048-.148l-.139-.031a13.652,13.652,0,0,0-1.731-.257,15.218,15.218,0,0,0-.107-5.033.685.685,0,1,0-1.34.283,13.873,13.873,0,0,1,.069,4.676,38.489,38.489,0,0,0-4.253.187,11.89,11.89,0,0,0,.569-5.1.685.685,0,1,0-1.358.183,10.279,10.279,0,0,1-.755,5.063l-.7.071c-2.817.291-5.25.541-7.209-.249a6.879,6.879,0,0,0-6.831,1.141,5.711,5.711,0,0,0-1.771,3.1,9.788,9.788,0,0,0,.294,4.722,8.5,8.5,0,0,1-.473,6.691c-.877,2.083-.11,4.2.7,6.452.224.621.456,1.263.652,1.906a9.787,9.787,0,0,1,.3,2.98,8.881,8.881,0,0,0,1.552,5.814,4.631,4.631,0,0,0,3.076,2.007,4.934,4.934,0,0,0,.8.064,8.127,8.127,0,0,0,4.189-1.407,27.309,27.309,0,0,0,4.95.394c2.661,0,2.866,1.672,2.866,4.034a.685.685,0,1,0,1.37,0,7.955,7.955,0,0,0-.51-3.392,3.734,3.734,0,0,0-3.726-2.012c-6.223,0-8.257-1.384-8.867-2.545a2.966,2.966,0,0,1,.1-2.564c2.115,1.11,5.619,1.353,9.45,1.353,1.469,0,2.985-.035,4.488-.07a.685.685,0,0,0-.015-1.37Z" transform="translate(-1618.801 -1247.364)"/><path class="c" d="M1723.41,1414.127a.684.684,0,0,0-.939.238,7.431,7.431,0,0,0-.755,3.729v.327a.685.685,0,1,0,1.37,0v-.327a6.244,6.244,0,0,1,.562-3.029A.685.685,0,0,0,1723.41,1414.127Z" transform="translate(-1697.529 -1374.861)"/><path class="c" d="M1673.351,1366.333c-1.727.117-3.219.218-4.331.218a49.209,49.209,0,0,1-5.776-.4.685.685,0,1,0-.187,1.357,49.688,49.688,0,0,0,5.963.417c1.158,0,2.671-.1,4.423-.22l.264-.018a.685.685,0,0,0-.093-1.367Z" transform="translate(-1652.204 -1338.226)"/><path class="c" d="M1739.468,1329.318a.686.686,0,0,0-.7.026,9.3,9.3,0,0,1-9.38-.011.684.684,0,0,0-.73.014,8.152,8.152,0,0,1-6.336,1.123,10.382,10.382,0,0,1-3.032-1.132.685.685,0,0,0-1.047.581v10.8a11.76,11.76,0,0,0,4.676,9.359l5.7,4.283a.686.686,0,0,0,.823,0l5.7-4.283a11.76,11.76,0,0,0,4.676-9.359v-10.8A.686.686,0,0,0,1739.468,1329.318Zm-1.013,11.4a10.384,10.384,0,0,1-4.129,8.263l-5.292,3.974-5.293-3.974a10.384,10.384,0,0,1-4.129-8.263v-9.682a12.3,12.3,0,0,0,2.381.768,9.636,9.636,0,0,0,7.054-1.083,10.2,10.2,0,0,0,7.139,1.054,11.528,11.528,0,0,0,2.269-.731Z" transform="translate(-1694.873 -1309.994)"/><path class="c" d="M1744.342,1348.042a.684.684,0,0,0-.484.2l-7.545,7.544-2.161-2.161a.685.685,0,0,0-.979.01l-1.931,2.014a.685.685,0,0,0,.01.958l4.549,4.549a.685.685,0,0,0,.969,0l10-10a.685.685,0,0,0,0-.968l-1.946-1.946A.685.685,0,0,0,1744.342,1348.042Zm-8.056,11.664-3.591-3.591.983-1.025,2.151,2.15a.685.685,0,0,0,.969,0l7.545-7.544.977.977Z" transform="translate(-1704.671 -1324.381)"/></g></g><text class="d" transform="translate(38 85)"><tspan x="-17.29" y="0">장건강</tspan></text></g></svg>