<svg xmlns="http://www.w3.org/2000/svg" width="32" height="32" viewBox="0 0 32 32"><defs><style>.a{fill:#fff;opacity:0;}.b{fill:#2b428e;}</style></defs><rect class="a" width="32" height="32"/><path class="b" d="M3427.569,2291.4a.485.485,0,0,0-.686-.019l-1.38,1.306h-2.745a.486.486,0,0,0-.42.243l-1.408,2.438-2.59,2.452h-2.451l-1.835-2.44a.486.486,0,0,0-.776.584l1.788,2.376-1.282,2.221a.486.486,0,0,0,0,.486l1.282,2.221-1.788,2.376a.486.486,0,0,0,.776.584l1.835-2.44h2.407l.883,1.13a.486.486,0,0,0,.765-.6l-.827-1.059,1.279-2.216a.485.485,0,0,0,0-.486l-1.251-2.167,2.057-1.947,1.135,1.967a.485.485,0,0,0,.42.243h2.886a.485.485,0,0,0,.42-.243l1.443-2.5a.486.486,0,0,0,0-.486l-1.233-2.136,1.276-1.207A.486.486,0,0,0,3427.569,2291.4Zm-9.317,11.419h-2.325l-1.163-2.014,1.163-2.014h2.325l1.163,2.014Zm7.112-5.133h-2.326l-1.163-2.014,1.163-2.014h2.326l1.163,2.014Z" transform="translate(-3398.76 -2291.247)"/><path class="b" d="M3394.51,2314.827h1.346a.485.485,0,1,0,0-.971h-1.346a.485.485,0,1,0,0,.971Z" transform="translate(-3382.941 -2309.917)"/><path class="b" d="M3502.63,2291.247h-1.345a.486.486,0,1,0,0,.971h1.345a.486.486,0,1,0,0-.971Z" transform="translate(-3471.116 -2291.247)"/><path class="b" d="M3394.51,2303.188h3.337a.485.485,0,0,0,0-.971h-3.337a.485.485,0,1,0,0,.971Z" transform="translate(-3382.941 -2300.306)"/><path class="b" d="M3457.194,2383.909h-1.346a.486.486,0,0,0,0,.971h1.346a.486.486,0,0,0,0-.971Z" transform="translate(-3433.595 -2367.767)"/><path class="b" d="M3458.266,2373.027h-2.418a.485.485,0,1,0,0,.971h2.418a.485.485,0,1,0,0-.971Z" transform="translate(-3433.595 -2358.781)"/><path class="b" d="M3345.637,2355.61a.482.482,0,0,0-.1-.1l-5.53-5.662a5.6,5.6,0,0,0-8.011,7.824l10.527,10.778a5.564,5.564,0,0,0,3.939,1.686h.068a5.6,5.6,0,0,0,4-9.511Zm-12.87-5.163a4.633,4.633,0,0,1,6.544.077l5.466,5.6.018.2a5.108,5.108,0,0,1-6.191,5.438l-1.6-.354-4.315-4.418A4.633,4.633,0,0,1,3332.768,2350.446Zm16.994,17.4a4.633,4.633,0,0,1-6.544-.077l-4.973-5.091.151.033a6.079,6.079,0,0,0,7.381-5.569l4.063,4.16a4.628,4.628,0,0,1-.077,6.544Z" transform="translate(-3330.405 -2338.244)"/><path class="b" d="M3370.71,2366.754a4.628,4.628,0,0,1,1.194.883l2.988,3.06a.485.485,0,1,0,.695-.678l-2.989-3.06a5.592,5.592,0,0,0-1.444-1.068.486.486,0,1,0-.444.864Z" transform="translate(-3363.471 -2352.842)"/><path class="b" d="M3358.2,2362.624c-.179-.018-.361-.028-.541-.029h0a.486.486,0,0,0,0,.971c.149,0,.3.009.448.024l.05,0a.486.486,0,0,0,.048-.969Z" transform="translate(-3352.505 -2350.166)"/></svg>