<svg id="off-youth" xmlns="http://www.w3.org/2000/svg" width="52" height="70" viewBox="0 0 52 70">
  <rect id="사각형_2265" data-name="사각형 2265" width="52" height="70" rx="10" fill="#fff"/>
  <g id="그룹_147" data-name="그룹 147" transform="translate(9.889 8.39)">
    <g id="구성_요소_230_7" data-name="구성 요소 230 – 7" transform="translate(0.111 -0.39)">
      <rect id="사각형_13919" data-name="사각형 13919" width="32" height="32" fill="#fff" opacity="0"/>
      <g id="그룹_3194" data-name="그룹 3194" transform="translate(-437.289 -135.874)">
        <g id="그룹_3181" data-name="그룹 3181" transform="translate(446.862 153.814)">
          <g id="그룹_3179" data-name="그룹 3179" transform="translate(11.419)">
            <path id="패스_6411" data-name="패스 6411" d="M524.481,208.744a.915.915,0,0,1-.909-.92v-1.242a.909.909,0,1,1,1.819,0v1.242A.915.915,0,0,1,524.481,208.744Z" transform="translate(-523.572 -205.661)" fill="#a5a4a4"/>
          </g>
          <g id="그룹_3180" data-name="그룹 3180" transform="translate(0)">
            <path id="패스_6412" data-name="패스 6412" d="M477.545,208.744a.915.915,0,0,1-.909-.92v-1.242a.909.909,0,1,1,1.818,0v1.242A.915.915,0,0,1,477.545,208.744Z" transform="translate(-476.636 -205.661)" fill="#a5a4a4"/>
          </g>
        </g>
        <g id="그룹_3182" data-name="그룹 3182" transform="translate(449.914 160.688)">
          <path id="패스_6413" data-name="패스 6413" d="M492.749,235.782a5.074,5.074,0,0,1-3.368-1.141.619.619,0,0,1-.041-.867.6.6,0,0,1,.856-.042,4.371,4.371,0,0,0,5.105,0,.6.6,0,0,1,.856.042.619.619,0,0,1-.041.867A5.074,5.074,0,0,1,492.749,235.782Z" transform="translate(-489.183 -233.572)" fill="#a5a4a4"/>
        </g>
        <g id="그룹_3183" data-name="그룹 3183" transform="translate(441.866 158.062)">
          <path id="패스_6414" data-name="패스 6414" d="M467.6,231.723a12.356,12.356,0,0,1-11.459-7.969.616.616,0,0,1,.348-.793.6.6,0,0,1,.783.353,11.016,11.016,0,0,0,20.657-.008.6.6,0,0,1,.783-.353.616.616,0,0,1,.349.793A12.354,12.354,0,0,1,467.6,231.723Z" transform="translate(-456.1 -222.911)" fill="#a5a4a4"/>
        </g>
        <g id="그룹_3186" data-name="그룹 3186" transform="translate(437.289 150.76)">
          <g id="그룹_3184" data-name="그룹 3184" transform="translate(0)">
            <path id="패스_6415" data-name="패스 6415" d="M442.473,201.8h-.025a5.06,5.06,0,0,1-5.159-5c0-2.086,1.294-3.542,3.146-3.542a3.455,3.455,0,0,1,.9.122.615.615,0,0,1,.429.752.605.605,0,0,1-.742.434,2.26,2.26,0,0,0-.59-.08c-1.335,0-1.933,1.163-1.933,2.315a3.881,3.881,0,0,0,3.995,3.77.614.614,0,0,1-.024,1.227Z" transform="translate(-437.289 -193.259)" fill="#a5a4a4"/>
          </g>
          <g id="그룹_3185" data-name="그룹 3185" transform="translate(26.366)">
            <path id="패스_6416" data-name="패스 6416" d="M546.266,201.789a.614.614,0,0,1-.038-1.226,3.816,3.816,0,0,0,3.854-3.762c0-1.152-.6-2.315-1.934-2.315a2.215,2.215,0,0,0-.285.019.614.614,0,0,1-.153-1.218,3.444,3.444,0,0,1,.438-.029c1.852,0,3.146,1.457,3.146,3.542a5.054,5.054,0,0,1-4.99,4.986Z" transform="translate(-545.661 -193.259)" fill="#a5a4a4"/>
          </g>
        </g>
        <g id="그룹_3192" data-name="그룹 3192" transform="translate(440.572 136.874)">
          <g id="그룹_3187" data-name="그룹 3187" transform="translate(21.277 5.362)">
            <path id="패스_6417" data-name="패스 6417" d="M542.17,168.427a.614.614,0,0,1-.606-.618c0-.009,0-.034,0-.043a11.868,11.868,0,0,0-3.164-8.085.619.619,0,0,1,.027-.867.6.6,0,0,1,.857.028,13.1,13.1,0,0,1,3.492,8.933c0,.009,0,.034,0,.043A.606.606,0,0,1,542.17,168.427Z" transform="translate(-538.236 -158.648)" fill="#a5a4a4"/>
          </g>
          <g id="그룹_3188" data-name="그룹 3188" transform="translate(0 1.423)">
            <path id="패스_6418" data-name="패스 6418" d="M451.393,156.442a.61.61,0,0,1-.606-.608V155.8c0-.027,0-.055,0-.083a13,13,0,0,1,12.909-13.066.614.614,0,0,1,0,1.227A11.782,11.782,0,0,0,452,155.717l0,.105a.61.61,0,0,1-.6.62Z" transform="translate(-450.784 -142.651)" fill="#a5a4a4"/>
          </g>
          <g id="그룹_3189" data-name="그룹 3189" transform="translate(0 5.362)">
            <path id="패스_6419" data-name="패스 6419" d="M452.544,171.315H451.39a.61.61,0,0,1-.606-.614v-2.816a.606.606,0,1,1,1.212,0v2.2h.548a.814.814,0,0,0,.859-.758v-1.545a.617.617,0,0,1,.189-.445.6.6,0,0,1,.45-.167,3.788,3.788,0,0,0,2.451-.757,1.913,1.913,0,0,0,.553-1.459.615.615,0,0,1,.339-.551.6.6,0,0,1,.638.065c1.269.99,3.376,1.513,6.094,1.513,4.8,0,6.556-2.535,7.975-6.914a.6.6,0,0,1,.765-.392.615.615,0,0,1,.387.774c-1.272,3.926-3.024,7.759-9.127,7.759a12.518,12.518,0,0,1-6-1.219,2.923,2.923,0,0,1-.8,1.318,4.5,4.5,0,0,1-2.708,1.071v.949A2.032,2.032,0,0,1,452.544,171.315Z" transform="translate(-450.784 -158.648)" fill="#a5a4a4"/>
          </g>
          <g id="그룹_3190" data-name="그룹 3190" transform="translate(19.378 1.316)">
            <path id="패스_6420" data-name="패스 6420" d="M532.939,147.491a.6.6,0,0,1-.189-.031.615.615,0,0,1-.387-.774c.2-.629.373-1.132.594-1.784.232-.684.136-1.221-.251-1.4-.31-.146-.8-.036-1.143.547a.6.6,0,0,1-.831.214.618.618,0,0,1-.212-.841,2.111,2.111,0,0,1,2.7-1.035,2.216,2.216,0,0,1,.888,2.915c-.219.646-.386,1.144-.589,1.767A.607.607,0,0,1,532.939,147.491Z" transform="translate(-530.435 -142.218)" fill="#a5a4a4"/>
          </g>
          <g id="그룹_3191" data-name="그룹 3191" transform="translate(12.302)">
            <path id="패스_6421" data-name="패스 6421" d="M508.892,139.747a.591.591,0,0,1-.169-.024.615.615,0,0,1-.414-.76.634.634,0,0,0-.25-.806c-.236-.118-.641-.08-1,.416-.9,1.228-2.139,1.133-3.575,1.024-.48-.036-.975-.074-1.523-.074a.614.614,0,0,1,0-1.227c.594,0,1.136.041,1.614.078,1.393.106,2.03.125,2.51-.53a1.989,1.989,0,0,1,2.516-.787,1.849,1.849,0,0,1,.878,2.247A.608.608,0,0,1,508.892,139.747Z" transform="translate(-501.35 -136.874)" fill="#a5a4a4"/>
          </g>
        </g>
        <g id="그룹_3193" data-name="그룹 3193" transform="translate(458.938 147.932)">
          <path id="패스_6422" data-name="패스 6422" d="M533.118,188.747h-1.042a2.118,2.118,0,0,1-2.16-2.068v-.866a4.5,4.5,0,0,1-2.708-1.071,3.123,3.123,0,0,1-.935-2.353.606.606,0,1,1,1.212,0,1.915,1.915,0,0,0,.552,1.459,3.791,3.791,0,0,0,2.452.756.6.6,0,0,1,.449.168.618.618,0,0,1,.189.445v1.462a.9.9,0,0,0,.948.84h.436v-1.843a.606.606,0,1,1,1.212,0v2.456A.61.61,0,0,1,533.118,188.747Z" transform="translate(-526.273 -181.775)" fill="#a5a4a4"/>
        </g>
      </g>
    </g>
    <text id="_7살_이하" data-name="7살 이하" transform="translate(16.111 50.61)" fill="#a5a4a4" font-size="9" font-family="SegoeUI, Segoe UI" letter-spacing="-0.05em"><tspan x="-16.258" y="0">7</tspan><tspan y="0" font-family="MalgunGothic, Malgun Gothic">살</tspan><tspan y="0"> </tspan><tspan y="0" font-family="MalgunGothic, Malgun Gothic">이하</tspan></text>
  </g>
</svg>
