<svg xmlns="http://www.w3.org/2000/svg" width="52" height="70" viewBox="0 0 52 70"><defs><style>.a,.b{fill:#fff;}.b{opacity:0;}.c,.d{fill:#a5a4a4;}.d{font-size:9px;font-family:NotoSansKR-Medium, Noto Sans KR;font-weight:500;letter-spacing:-0.05em;}</style></defs><rect class="a" width="52" height="70" rx="10"/><g transform="translate(10 8)"><rect class="b" width="32" height="32"/><g transform="translate(-619.162 -135.874)"><g transform="translate(628.735 153.814)"><g transform="translate(11.419)"><path class="c" d="M706.354,208.744a.915.915,0,0,1-.909-.92v-1.242a.909.909,0,1,1,1.818,0v1.242A.915.915,0,0,1,706.354,208.744Z" transform="translate(-705.445 -205.661)"/></g><g transform="translate(0)"><path class="c" d="M659.417,208.744a.915.915,0,0,1-.909-.92v-1.242a.909.909,0,1,1,1.819,0v1.242A.915.915,0,0,1,659.417,208.744Z" transform="translate(-658.508 -205.661)"/></g></g><g transform="translate(631.787 160.688)"><path class="c" d="M674.621,235.782a5.075,5.075,0,0,1-3.368-1.141.619.619,0,0,1-.041-.867.6.6,0,0,1,.857-.042,4.371,4.371,0,0,0,5.1,0,.6.6,0,0,1,.857.042.619.619,0,0,1-.041.867A5.074,5.074,0,0,1,674.621,235.782Z" transform="translate(-671.054 -233.573)"/></g><g transform="translate(623.739 158.062)"><path class="c" d="M649.472,231.723a12.355,12.355,0,0,1-11.459-7.969.616.616,0,0,1,.348-.793.6.6,0,0,1,.783.353,11.016,11.016,0,0,0,20.658-.008.6.6,0,0,1,.783-.353.616.616,0,0,1,.349.793A12.354,12.354,0,0,1,649.472,231.723Z" transform="translate(-637.973 -222.911)"/></g><g transform="translate(619.162 150.76)"><g transform="translate(0)"><path class="c" d="M624.345,201.8h-.025a5.06,5.06,0,0,1-5.158-5c0-2.086,1.294-3.542,3.146-3.542a3.459,3.459,0,0,1,.9.122.614.614,0,0,1,.429.752.605.605,0,0,1-.742.434,2.257,2.257,0,0,0-.59-.08c-1.335,0-1.933,1.163-1.933,2.315a3.881,3.881,0,0,0,4,3.77.614.614,0,0,1-.024,1.227Z" transform="translate(-619.162 -193.259)"/></g><g transform="translate(26.366)"><path class="c" d="M728.139,201.789a.614.614,0,0,1-.038-1.226,3.816,3.816,0,0,0,3.854-3.762c0-1.152-.6-2.315-1.933-2.315a2.214,2.214,0,0,0-.285.019.606.606,0,0,1-.678-.531.612.612,0,0,1,.525-.686,3.447,3.447,0,0,1,.438-.029c1.852,0,3.146,1.457,3.146,3.542a5.054,5.054,0,0,1-4.99,4.986Z" transform="translate(-727.533 -193.259)"/></g></g><g transform="translate(624.343 157.606)"><path class="c" d="M645.82,224.99a.652.652,0,0,1-.2-.033c-.109-.036-1.1-.4-2-2.184a.8.8,0,0,0-.491-.436,2.829,2.829,0,0,0-1.778.331.6.6,0,0,1-.821-.251.617.617,0,0,1,.248-.831,3.955,3.955,0,0,1,2.713-.421,2.021,2.021,0,0,1,1.209,1.048,4.617,4.617,0,0,0,.9,1.279c.607-.8,2.132-1.97,5.87-1.97a.614.614,0,0,1,0,1.227c-4.443,0-5.076,1.78-5.082,1.8a.593.593,0,0,1-.294.373A.565.565,0,0,1,645.82,224.99Z" transform="translate(-640.459 -221.058)"/></g><g transform="translate(634.748 157.605)"><path class="c" d="M689.492,224.987a.6.6,0,0,1-.289-.075.611.611,0,0,1-.3-.381s-.635-1.782-5.077-1.782a.614.614,0,0,1,0-1.227c3.739,0,5.263,1.166,5.87,1.971a4.646,4.646,0,0,0,.9-1.28,2.021,2.021,0,0,1,1.209-1.048,3.947,3.947,0,0,1,2.712.421.617.617,0,0,1,.247.831.6.6,0,0,1-.82.251,2.8,2.8,0,0,0-1.781-.331.8.8,0,0,0-.489.436c-.9,1.78-1.888,2.148-2,2.184A.605.605,0,0,1,689.492,224.987Z" transform="translate(-683.223 -221.056)"/></g><g transform="translate(622.445 136.874)"><g transform="translate(21.276 5.362)"><path class="c" d="M724.043,168.427a.614.614,0,0,1-.606-.618c0-.009,0-.034,0-.043a11.868,11.868,0,0,0-3.164-8.085.619.619,0,0,1,.028-.867.6.6,0,0,1,.857.028,13.1,13.1,0,0,1,3.492,8.933c0,.009,0,.034,0,.043A.606.606,0,0,1,724.043,168.427Z" transform="translate(-720.109 -158.648)"/></g><g transform="translate(0 1.423)"><path class="c" d="M633.266,156.442a.61.61,0,0,1-.606-.61V155.8c0-.026,0-.053,0-.08a13,13,0,0,1,12.908-13.066.614.614,0,0,1,0,1.227,11.782,11.782,0,0,0-11.7,11.839l0,.107a.61.61,0,0,1-.6.618Z" transform="translate(-632.657 -142.651)"/></g><g transform="translate(0 5.362)"><path class="c" d="M634.417,171.315h-1.154a.61.61,0,0,1-.606-.614v-2.816a.606.606,0,1,1,1.212,0v2.2h.548a.814.814,0,0,0,.859-.758v-1.545a.617.617,0,0,1,.189-.445.6.6,0,0,1,.45-.167,3.788,3.788,0,0,0,2.451-.757,1.914,1.914,0,0,0,.553-1.459.614.614,0,0,1,.338-.551.6.6,0,0,1,.637.065c1.27.99,3.377,1.513,6.094,1.513,4.8,0,6.557-2.535,7.975-6.914a.6.6,0,0,1,.765-.392.615.615,0,0,1,.387.774c-1.272,3.926-3.024,7.759-9.127,7.759a12.518,12.518,0,0,1-6-1.219,2.926,2.926,0,0,1-.8,1.318,4.5,4.5,0,0,1-2.708,1.071v.949A2.032,2.032,0,0,1,634.417,171.315Z" transform="translate(-632.657 -158.648)"/></g><g transform="translate(12.302)"><path class="c" d="M692.8,143.464a.6.6,0,0,1-.189-.031.615.615,0,0,1-.387-.774c.2-.629.373-1.132.594-1.784.232-.684.136-1.221-.251-1.4-.311-.146-.8-.036-1.143.547-.277.472-.59,1.009-1.14.768s-.415-.74-.1-1.825a.633.633,0,0,0-.25-.806c-.236-.118-.641-.08-1,.416-.9,1.228-2.139,1.133-3.575,1.024-.479-.036-.975-.074-1.524-.074a.614.614,0,0,1,0-1.227c.594,0,1.136.041,1.615.078,1.393.106,2.03.125,2.509-.53a1.989,1.989,0,0,1,2.516-.787,1.738,1.738,0,0,1,.948,1.341,1.93,1.93,0,0,1,1.662-.04,2.216,2.216,0,0,1,.888,2.915c-.219.646-.386,1.144-.589,1.767A.607.607,0,0,1,692.8,143.464Z" transform="translate(-683.223 -136.874)"/></g></g><g transform="translate(640.811 147.932)"><path class="c" d="M714.991,188.747h-1.042a2.118,2.118,0,0,1-2.16-2.068v-.866a4.5,4.5,0,0,1-2.708-1.071,3.123,3.123,0,0,1-.935-2.353.606.606,0,1,1,1.212,0,1.914,1.914,0,0,0,.553,1.459,3.791,3.791,0,0,0,2.452.756.6.6,0,0,1,.449.168.617.617,0,0,1,.189.445v1.462a.9.9,0,0,0,.948.84h.436v-1.843a.606.606,0,1,1,1.212,0v2.456A.61.61,0,0,1,714.991,188.747Z" transform="translate(-708.146 -181.775)"/></g></g></g><text class="d" transform="translate(26 59)"><tspan x="-20.565" y="0">36개월이하</tspan></text></svg>