<svg id="off-baby" xmlns="http://www.w3.org/2000/svg" width="52" height="70" viewBox="0 0 52 70">
  <rect id="사각형_2265" data-name="사각형 2265" width="52" height="70" rx="10" fill="#fff"/>
  <text id="_4개월_이하" data-name="4개월 이하" transform="translate(26 59)" fill="#a5a4a4" font-size="9" font-family="SegoeUI, Segoe UI" letter-spacing="-0.05em"><tspan x="-20.533" y="0">4</tspan><tspan y="0" font-family="MalgunGothic, Malgun Gothic">개월</tspan><tspan y="0"> </tspan><tspan y="0" font-family="MalgunGothic, Malgun Gothic">이하</tspan></text>
  <g id="구성_요소_228_2" data-name="구성 요소 228 – 2" transform="translate(10 8)">
    <rect id="사각형_13917" data-name="사각형 13917" width="32" height="32" fill="#a5a4a4" opacity="0"/>
    <g id="그룹_3148" data-name="그룹 3148" transform="translate(-1857 -680)">
      <g id="그룹_3136" data-name="그룹 3136" transform="translate(1869.836 706.387)">
        <path id="패스_6379" data-name="패스 6379" d="M126.256,235.577a4.857,4.857,0,0,1-3.157-1.036.549.549,0,0,1-.039-.787.576.576,0,0,1,.8-.038,4.209,4.209,0,0,0,4.786,0,.577.577,0,0,1,.8.038.549.549,0,0,1-.039.787A4.856,4.856,0,0,1,126.256,235.577Z" transform="translate(-122.913 -233.572)" fill="#a5a4a4"/>
      </g>
      <g id="그룹_3137" data-name="그룹 3137" transform="translate(1862.291 704.004)">
        <path id="패스_6380" data-name="패스 6380" d="M100.611,230.908a11.576,11.576,0,0,1-10.743-7.231.554.554,0,0,1,.327-.72.573.573,0,0,1,.734.32,10.45,10.45,0,0,0,19.366-.008.572.572,0,0,1,.734-.32.553.553,0,0,1,.327.719A11.574,11.574,0,0,1,100.611,230.908Z" transform="translate(-89.831 -222.912)" fill="#a5a4a4"/>
      </g>
      <g id="그룹_3141" data-name="그룹 3141" transform="translate(1858 686.069)">
        <g id="그룹_3138" data-name="그룹 3138" transform="translate(3.078)">
          <path id="패스_6381" data-name="패스 6381" d="M85.086,155.165a.563.563,0,0,1-.568-.553v-.032c0-.024,0-.049,0-.073a12.1,12.1,0,0,1,24.2,0c0,.007,0,.029,0,.036a.568.568,0,0,1-1.137-.005c0-.007,0-.029,0-.036a10.967,10.967,0,0,0-21.93.005l0,.1a.562.562,0,0,1-.565.56Z" transform="translate(-84.515 -142.651)" fill="#a5a4a4"/>
        </g>
        <g id="그룹_3139" data-name="그룹 3139" transform="translate(0 11.309)">
          <path id="패스_6382" data-name="패스 6382" d="M75.879,201.007h-.023a4.664,4.664,0,0,1-4.836-4.533,2.956,2.956,0,0,1,2.949-3.214,3.347,3.347,0,0,1,.847.11.556.556,0,0,1,.4.682.569.569,0,0,1-.7.394,2.182,2.182,0,0,0-.553-.072,1.879,1.879,0,0,0-1.813,2.1,3.575,3.575,0,0,0,3.745,3.421.557.557,0,0,1-.023,1.113Z" transform="translate(-71.019 -193.259)" fill="#a5a4a4"/>
        </g>
        <g id="그룹_3140" data-name="그룹 3140" transform="translate(24.718 11.309)">
          <path id="패스_6383" data-name="패스 6383" d="M179.959,201a.557.557,0,0,1-.035-1.113,3.512,3.512,0,0,0,3.613-3.413,1.879,1.879,0,0,0-1.812-2.1,2.141,2.141,0,0,0-.267.017.567.567,0,0,1-.636-.482.559.559,0,0,1,.492-.623,3.323,3.323,0,0,1,.411-.026,2.956,2.956,0,0,1,2.949,3.214A4.653,4.653,0,0,1,180,201Z" transform="translate(-179.391 -193.259)" fill="#a5a4a4"/>
        </g>
      </g>
      <g id="그룹_3144" data-name="그룹 3144" transform="translate(1866.867 700.15)">
        <g id="그룹_3142" data-name="그룹 3142" transform="translate(10.706 0)">
          <path id="패스_6384" data-name="패스 6384" d="M157.686,208.459a.844.844,0,0,1-.852-.835V206.5a.853.853,0,0,1,1.7,0v1.127A.844.844,0,0,1,157.686,208.459Z" transform="translate(-156.834 -205.661)" fill="#a5a4a4"/>
        </g>
        <g id="그룹_3143" data-name="그룹 3143" transform="translate(0 0)">
          <path id="패스_6385" data-name="패스 6385" d="M110.749,208.459a.844.844,0,0,1-.852-.835V206.5a.853.853,0,0,1,1.7,0v1.127A.844.844,0,0,1,110.749,208.459Z" transform="translate(-109.897 -205.661)" fill="#a5a4a4"/>
        </g>
      </g>
      <g id="그룹_3147" data-name="그룹 3147" transform="translate(1869.836 680)">
        <g id="그룹_3145" data-name="그룹 3145" transform="translate(0 1.845)">
          <path id="패스_6386" data-name="패스 6386" d="M125.606,127.7a2.669,2.669,0,0,1-2.693-2.638c0-.1.005-.2.016-.309a.568.568,0,0,1,1.131.108c-.007.066-.01.133-.01.2a1.543,1.543,0,0,0,1.557,1.525.866.866,0,0,0,.969-.95.785.785,0,0,0-.792-.776.557.557,0,1,1,0-1.114,1.911,1.911,0,0,1,1.928,1.889A1.974,1.974,0,0,1,125.606,127.7Z" transform="translate(-122.913 -123.749)" fill="#a5a4a4"/>
        </g>
        <g id="그룹_3146" data-name="그룹 3146" transform="translate(0.013)">
          <path id="패스_6387" data-name="패스 6387" d="M125.173,125.16a.557.557,0,1,1,0-1.114c1.512,0,3.761-1.263,3.761-4.744a2.535,2.535,0,0,0-2.752-2.7,2.063,2.063,0,0,0-2.077,1.845.566.566,0,0,1-.62.5.56.56,0,0,1-.511-.608,3.187,3.187,0,0,1,3.209-2.851,3.644,3.644,0,0,1,3.888,3.81C130.07,123.6,127.141,125.16,125.173,125.16Z" transform="translate(-122.97 -115.492)" fill="#a5a4a4"/>
        </g>
      </g>
    </g>
  </g>
</svg>
