<svg xmlns="http://www.w3.org/2000/svg" width="52" height="70" viewBox="0 0 52 70"><defs><style>.a{fill:#e16a49;}.b,.c,.d{fill:#fff;}.c{opacity:0;}.d{font-size:9px;font-family:NotoSansKR-Medium, Noto Sans KR;font-weight:500;letter-spacing:-0.05em;}</style></defs><rect class="a" width="52" height="70" rx="10"/><g transform="translate(10 8.281)"><g transform="translate(-253.338 -129.827)"><g transform="translate(256.624 141.262)"><path class="b" d="M271.094,182.326a11.885,11.885,0,0,1-3.519-.651l-.292-.086a.619.619,0,0,1-.416-.764.6.6,0,0,1,.75-.424l.294.087a10.97,10.97,0,0,0,3.182.6,12.463,12.463,0,0,0,10.033-4.906.6.6,0,0,1,.849-.121.626.626,0,0,1,.119.865A13.674,13.674,0,0,1,271.094,182.326Z" transform="translate(-266.844 -175.938)"/></g><g transform="translate(270.785 141.262)"><path class="b" d="M335.573,181.58a13.7,13.7,0,0,1-10.371-4.613.627.627,0,0,1,.051-.872.6.6,0,0,1,.856.052,12.5,12.5,0,0,0,9.464,4.2c.123,0,.245,0,.368-.008l.065,0a.618.618,0,0,1,.038,1.235l-.064,0C335.845,181.576,335.71,181.58,335.573,181.58Z" transform="translate(-325.05 -175.939)"/></g><g transform="translate(265.963 155.597)"><path class="b" d="M308.8,235.967a5.05,5.05,0,0,1-3.368-1.15.626.626,0,0,1-.041-.873.6.6,0,0,1,.856-.042,4.346,4.346,0,0,0,5.105,0,.6.6,0,0,1,.856.042.627.627,0,0,1-.041.873A5.051,5.051,0,0,1,308.8,235.967Z" transform="translate(-305.232 -233.742)"/></g><g transform="translate(257.915 152.954)"><path class="b" d="M283.649,231.956a12.359,12.359,0,0,1-11.459-8.025.622.622,0,0,1,.348-.8.6.6,0,0,1,.783.355,10.989,10.989,0,0,0,20.657-.008.6.6,0,0,1,.783-.356.622.622,0,0,1,.349.8A12.357,12.357,0,0,1,283.649,231.956Z" transform="translate(-272.149 -223.082)"/></g><g transform="translate(253.338 133.05)"><g transform="translate(3.283 0)"><path class="b" d="M267.442,156.71a.612.612,0,0,1-.606-.612v-.035c0-.028,0-.055,0-.083a12.911,12.911,0,1,1,25.817,0c0,.007,0,.032,0,.04a.606.606,0,1,1-1.213-.006c0-.007,0-.032,0-.04a11.7,11.7,0,1,0-23.392.006l0,.106a.613.613,0,0,1-.6.624Z" transform="translate(-266.833 -142.822)"/></g><g transform="translate(0 12.55)"><path class="b" d="M258.522,202.028H258.5A5.08,5.08,0,0,1,253.338,197c0-2.1,1.294-3.567,3.146-3.567a3.422,3.422,0,0,1,.9.123.619.619,0,0,1,.429.757.6.6,0,0,1-.742.437,2.245,2.245,0,0,0-.59-.08c-1.335,0-1.933,1.171-1.933,2.331a3.9,3.9,0,0,0,3.995,3.8.618.618,0,0,1-.024,1.236Z" transform="translate(-253.338 -193.429)"/></g><g transform="translate(26.366 12.55)"><path class="b" d="M362.315,202.019a.618.618,0,0,1-.038-1.235A3.831,3.831,0,0,0,366.131,197c0-1.16-.6-2.331-1.933-2.331a2.205,2.205,0,0,0-.285.019.608.608,0,0,1-.678-.535.616.616,0,0,1,.525-.691,3.421,3.421,0,0,1,.438-.029c1.852,0,3.146,1.467,3.146,3.567a5.075,5.075,0,0,1-4.99,5.021Z" transform="translate(-361.709 -193.429)"/></g></g><g transform="translate(267.344 129.827)"><path class="b" d="M314.367,134.294l-.051,0a.61.61,0,0,1-.542-.484c-.006-.027-.613-2.745-2.263-2.745a.618.618,0,0,1,0-1.236,3.482,3.482,0,0,1,3,2.395,2.793,2.793,0,0,1,2.16-1.238.618.618,0,0,1,0,1.236c-1.046,0-1.734,1.669-1.741,1.686A.607.607,0,0,1,314.367,134.294Z" transform="translate(-310.905 -129.827)"/></g><g transform="translate(262.797 148.676)"><g transform="translate(11.419 0)"><path class="b" d="M340.061,208.936a.918.918,0,0,1-.909-.927v-1.251a.909.909,0,1,1,1.819,0v1.251A.918.918,0,0,1,340.061,208.936Z" transform="translate(-339.152 -205.831)"/></g><g transform="translate(0 0)"><path class="b" d="M293.125,208.936a.918.918,0,0,1-.909-.927v-1.251a.909.909,0,1,1,1.818,0v1.251A.918.918,0,0,1,293.125,208.936Z" transform="translate(-292.216 -205.831)"/></g></g></g><rect class="c" width="32" height="32"/></g><text class="d" transform="translate(26 59)"><tspan x="-21.352" y="0">12개월 이하</tspan></text></svg>