<svg id="on-old" xmlns="http://www.w3.org/2000/svg" width="52" height="70" viewBox="0 0 52 70">
  <rect id="사각형_2320" data-name="사각형 2320" width="52" height="70" rx="10" fill="#e16a49"/>
  <text id="_12살_이상" data-name="12살 이상" transform="translate(26 59)" fill="#fff" font-size="9" font-family="SegoeUI, Segoe UI" letter-spacing="-0.05em"><tspan x="-18.459" y="0">12</tspan><tspan y="0" font-family="MalgunGothic, Malgun Gothic">살</tspan><tspan y="0"> </tspan><tspan y="0" font-family="MalgunGothic, Malgun Gothic">이상</tspan></text>
  <g id="구성_요소_232_6" data-name="구성 요소 232 – 6" transform="translate(10 7)">
    <rect id="사각형_13921" data-name="사각형 13921" width="32" height="32" fill="#fff" opacity="0"/>
    <g id="그룹_3212" data-name="그룹 3212" transform="translate(-801.231 -140.651)">
      <g id="그룹_3195" data-name="그룹 3195" transform="translate(813.737 165.373)">
        <path id="패스_6423" data-name="패스 6423" d="M856.2,235.815a5.027,5.027,0,0,1-3.368-1.158.635.635,0,0,1-.041-.88.6.6,0,0,1,.856-.042,4.32,4.32,0,0,0,5.105,0,.6.6,0,0,1,.856.042.635.635,0,0,1-.041.88A5.028,5.028,0,0,1,856.2,235.815Z" transform="translate(-852.636 -233.573)" fill="#fff"/>
      </g>
      <g id="그룹_3196" data-name="그룹 3196" transform="translate(812.368 153.323)">
        <path id="패스_6424" data-name="패스 6424" d="M856.258,187.746a.593.593,0,0,1-.352-.116,8.164,8.164,0,0,0-7.938,0,.6.6,0,0,1-.846-.144.634.634,0,0,1,.14-.869,9.285,9.285,0,0,1,9.349,0,.634.634,0,0,1,.14.869A.6.6,0,0,1,856.258,187.746Z" transform="translate(-847.008 -185.354)" fill="#fff"/>
      </g>
      <g id="그룹_3197" data-name="그룹 3197" transform="translate(812.699 150.363)">
        <path id="패스_6425" data-name="패스 6425" d="M856.955,175.774a.592.592,0,0,1-.343-.11,7.778,7.778,0,0,0-7.3,0,.6.6,0,0,1-.843-.16.634.634,0,0,1,.156-.866,8.895,8.895,0,0,1,8.67,0,.634.634,0,0,1,.156.866A.6.6,0,0,1,856.955,175.774Z" transform="translate(-848.366 -173.51)" fill="#fff"/>
      </g>
      <g id="그룹_3198" data-name="그룹 3198" transform="translate(814.113 158.477)">
        <path id="패스_6426" data-name="패스 6426" d="M859.96,208.241a.6.6,0,0,1-.441-.2,3.213,3.213,0,0,0-4.293,0,.6.6,0,0,1-.857.026.635.635,0,0,1-.026-.88,4.386,4.386,0,0,1,6.059,0,.634.634,0,0,1-.026.88A.594.594,0,0,1,859.96,208.241Z" transform="translate(-854.177 -205.977)" fill="#fff"/>
      </g>
      <g id="그룹_3199" data-name="그룹 3199" transform="translate(822.107 158.398)">
        <path id="패스_6427" data-name="패스 6427" d="M887.947,208.79a.922.922,0,0,1-.909-.934v-1.261a.91.91,0,1,1,1.818,0v1.261A.922.922,0,0,1,887.947,208.79Z" transform="translate(-887.038 -205.661)" fill="#fff"/>
      </g>
      <g id="그룹_3200" data-name="그룹 3200" transform="translate(810.688 158.398)">
        <path id="패스_6428" data-name="패스 6428" d="M841.01,208.79a.922.922,0,0,1-.909-.934v-1.261a.91.91,0,1,1,1.819,0v1.261A.922.922,0,0,1,841.01,208.79Z" transform="translate(-840.101 -205.661)" fill="#fff"/>
      </g>
      <g id="그룹_3201" data-name="그룹 3201" transform="translate(805.807 162.709)">
        <path id="패스_6429" data-name="패스 6429" d="M831.541,231.853a12.364,12.364,0,0,1-11.459-8.087.628.628,0,0,1,.348-.8.6.6,0,0,1,.783.358,10.961,10.961,0,0,0,20.658-.008.6.6,0,0,1,.783-.358.628.628,0,0,1,.349.8A12.362,12.362,0,0,1,831.541,231.853Z" transform="translate(-820.041 -222.911)" fill="#fff"/>
      </g>
      <g id="그룹_3205" data-name="그룹 3205" transform="translate(801.231 142.651)">
        <g id="그룹_3202" data-name="그룹 3202" transform="translate(3.283 0)">
          <path id="패스_6430" data-name="패스 6430" d="M815.335,156.646a.614.614,0,0,1-.606-.619v-.036c0-.027,0-.053,0-.081a12.913,12.913,0,1,1,25.817,0c0,.009,0,.035,0,.044a.611.611,0,0,1-.606.618.619.619,0,0,1-.606-.627c0-.009,0-.035,0-.044a11.7,11.7,0,1,0-23.392.009l0,.109a.615.615,0,0,1-.6.627Z" transform="translate(-814.726 -142.651)" fill="#fff"/>
        </g>
        <g id="그룹_3203" data-name="그룹 3203" transform="translate(0 12.648)">
          <path id="패스_6431" data-name="패스 6431" d="M806.414,201.924h-.025a5.1,5.1,0,0,1-5.158-5.07c0-2.117,1.293-3.595,3.146-3.595a3.412,3.412,0,0,1,.9.123.624.624,0,0,1,.428.763.6.6,0,0,1-.742.44,2.224,2.224,0,0,0-.589-.081c-1.336,0-1.934,1.18-1.934,2.349a3.913,3.913,0,0,0,4,3.825.623.623,0,0,1-.024,1.245Z" transform="translate(-801.231 -193.259)" fill="#fff"/>
        </g>
        <g id="그룹_3204" data-name="그룹 3204" transform="translate(26.366 12.648)">
          <path id="패스_6432" data-name="패스 6432" d="M910.208,201.915a.624.624,0,0,1-.038-1.244,3.848,3.848,0,0,0,3.854-3.817c0-1.169-.6-2.349-1.933-2.349a2.182,2.182,0,0,0-.285.019.608.608,0,0,1-.678-.539.62.62,0,0,1,.525-.7,3.4,3.4,0,0,1,.438-.029c1.852,0,3.146,1.478,3.146,3.595a5.1,5.1,0,0,1-4.99,5.06Z" transform="translate(-909.602 -193.259)" fill="#fff"/>
        </g>
      </g>
      <g id="그룹_3206" data-name="그룹 3206" transform="translate(809.282 158.107)">
        <path id="패스_6433" data-name="패스 6433" d="M834.928,206.663a.608.608,0,0,1-.576-.429.626.626,0,0,1,.388-.785,19.173,19.173,0,0,0,2.085-.888.6.6,0,0,1,.811.285.631.631,0,0,1-.278.833,20.177,20.177,0,0,1-2.242.954A.588.588,0,0,1,834.928,206.663Z" transform="translate(-834.322 -204.496)" fill="#fff"/>
      </g>
      <g id="그룹_3207" data-name="그룹 3207" transform="translate(821.955 158.107)">
        <path id="패스_6434" data-name="패스 6434" d="M889.183,206.664a.592.592,0,0,1-.188-.031,20.2,20.2,0,0,1-2.242-.954.631.631,0,0,1-.278-.833.6.6,0,0,1,.811-.285,19.349,19.349,0,0,0,2.086.889.627.627,0,0,1,.388.785A.609.609,0,0,1,889.183,206.664Z" transform="translate(-886.414 -204.497)" fill="#fff"/>
      </g>
      <g id="그룹_3208" data-name="그룹 3208" transform="translate(811.294 163.487)">
        <path id="패스_6435" data-name="패스 6435" d="M843.2,229.718a.6.6,0,0,1-.211-.039.628.628,0,0,1-.357-.8,5.043,5.043,0,0,1,2.049-2.784.6.6,0,0,1,.816.27.631.631,0,0,1-.257.835,3.924,3.924,0,0,0-1.471,2.112A.607.607,0,0,1,843.2,229.718Z" transform="translate(-842.594 -226.026)" fill="#fff"/>
      </g>
      <g id="그룹_3209" data-name="그룹 3209" transform="translate(820.354 163.488)">
        <path id="패스_6436" data-name="패스 6436" d="M882.19,229.72a.607.607,0,0,1-.568-.406,3.917,3.917,0,0,0-1.472-2.113.635.635,0,0,1-.249-.84.6.6,0,0,1,.808-.265,5.043,5.043,0,0,1,2.049,2.784.628.628,0,0,1-.357.8A.6.6,0,0,1,882.19,229.72Z" transform="translate(-879.831 -226.029)" fill="#fff"/>
      </g>
      <g id="그룹_3210" data-name="그룹 3210" transform="translate(807.42 156.422)">
        <path id="패스_6437" data-name="패스 6437" d="M831.281,204.523h-1.316a3.386,3.386,0,0,1,0-6.77h1.316a3.386,3.386,0,0,1,0,6.77ZM829.965,199a2.14,2.14,0,0,0,0,4.279h1.316a2.14,2.14,0,0,0,0-4.279Z" transform="translate(-826.67 -197.753)" fill="#fff"/>
      </g>
      <g id="그룹_3211" data-name="그룹 3211" transform="translate(819.29 156.422)">
        <path id="패스_6438" data-name="패스 6438" d="M880.07,204.523h-1.316a3.386,3.386,0,0,1,0-6.77h1.316a3.386,3.386,0,0,1,0,6.77ZM878.754,199a2.14,2.14,0,0,0,0,4.279h1.316a2.14,2.14,0,0,0,0-4.279Z" transform="translate(-875.459 -197.753)" fill="#fff"/>
      </g>
    </g>
  </g>
</svg>
