<svg xmlns="http://www.w3.org/2000/svg" xmlns:xlink="http://www.w3.org/1999/xlink" width="376" height="254" viewBox="0 0 376 254"><defs><style>.a,.c{fill:#2b428e;}.b{clip-path:url(#a);}.c{opacity:0;}.d,.e{fill:#e16a49;}.d{opacity:0.46;}.f{fill:#425aac;opacity:0.42;}.g{filter:url(#b);}</style><clipPath id="a"><path class="a" d="M0,0H376a0,0,0,0,1,0,0V234a20,20,0,0,1-20,20H20A20,20,0,0,1,0,234V0A0,0,0,0,1,0,0Z"/></clipPath><filter id="b" x="236" y="11" width="306" height="309" filterUnits="userSpaceOnUse"><feOffset dy="3" input="SourceAlpha"/><feGaussianBlur stdDeviation="3" result="c"/><feFlood flood-opacity="0.161"/><feComposite operator="in" in2="c"/><feComposite in="SourceGraphic"/></filter></defs><g class="b"><rect class="a" width="376" height="305"/><g transform="translate(188 40)"><rect class="c" width="176" height="176"/><g transform="translate(0 7.823)"><path class="a" d="M2088.38,2390.339a29.449,29.449,0,0,0-38.676-15.45l-33.687,14.455a2.743,2.743,0,0,0-.711.305l-38.048,16.327a29.451,29.451,0,1,0,23.229,54.129l72.444-31.086a29.449,29.449,0,0,0,15.449-38.68Zm-90.02,64.815a24.062,24.062,0,0,1-18.978-44.224l37.565-16.121.979.28a26.574,26.574,0,0,1,14.8,40.236l-4.713,7.1Zm85.3-44.275a23.886,23.886,0,0,1-12.855,13.185l-33.749,14.483.16-.241a31.974,31.974,0,0,0-13.029-46.6l27.64-11.86a24.06,24.06,0,0,1,31.833,31.036Z" transform="translate(-1914.785 -2301.392)"/><path class="a" d="M2010.989,2406.954l-20.566,8.826a29.355,29.355,0,0,0-7.978,5.066,2.695,2.695,0,0,0,3.583,4.026,23.968,23.968,0,0,1,6.519-4.139l20.566-8.826a2.7,2.7,0,0,0-2.125-4.954Z" transform="translate(-1916.564 -2304.145)"/><path class="a" d="M1978.779,2430.186a2.691,2.691,0,0,0-3.622,1.182c-.428.843-.819,1.719-1.166,2.6a2.694,2.694,0,0,0,1.529,3.492,2.726,2.726,0,0,0,.981.185,2.694,2.694,0,0,0,2.51-1.712c.282-.72.6-1.435.953-2.125A2.692,2.692,0,0,0,1978.779,2430.186Z" transform="translate(-1915.943 -2306.006)"/><path class="a" d="M1949.4,2397.972a37.176,37.176,0,0,1-12.885-10.558c-8.3-10.333-11.909-24.09-10.736-40.885,1.775-25.385-1.869-38.349-5.458-44.86a219.85,219.85,0,0,1,27.73,6.862c30.622,9.826,44.359,22.626,50.492,31.638,6.9,10.14,8.713,21.794,5.381,34.637a2.695,2.695,0,0,0,5.218,1.352c3.224-12.436,2.117-23.913-3.263-34.2,0-.016.007-.031.007-.046a36.881,36.881,0,0,1,2.657-10.807c1.193-3.239,2.342-6.352,2.36-10.378,6.075,4.067,16.4,12.406,19.116,23.549,1.8,7.388-.049,15.02-5.5,22.685a2.7,2.7,0,1,0,4.394,3.122c6.4-9,8.533-18.126,6.336-27.109-4.5-18.391-25.538-29.346-26.432-29.8a2.693,2.693,0,0,0-3.854,3c1.286,5.574.068,8.881-1.477,13.068a59.328,59.328,0,0,0-1.925,5.919c-9.919-13.224-27.371-23.914-51.959-31.791a214.027,214.027,0,0,0-35.7-8.172,2.694,2.694,0,0,0-1.486,5.106c.11.053,10.71,6.908,7.988,45.85-1.6,22.844,5.71,37.022,12.122,44.9,7.041,8.645,14.5,11.777,14.818,11.906a2.7,2.7,0,0,0,2.055-4.984Z" transform="translate(-1910.885 -2295.177)"/><path class="a" d="M1951.307,2326.091a2.693,2.693,0,1,0-2.558,4.74,72.792,72.792,0,0,1,16.609,13.57,68.875,68.875,0,0,1,18.629,42.182,2.7,2.7,0,0,0,2.688,2.512c.061,0,.123,0,.185-.007a2.7,2.7,0,0,0,2.5-2.873,74.215,74.215,0,0,0-20.05-45.473A77.088,77.088,0,0,0,1951.307,2326.091Z" transform="translate(-1913.814 -2297.637)"/></g></g><g transform="translate(13 10)"><circle class="d" cx="160" cy="160" r="160" transform="translate(216 -8)"/><g class="g" transform="matrix(1, 0, 0, 1, -13, -10)"><ellipse class="e" cx="144" cy="145.5" rx="144" ry="145.5" transform="translate(245 17)"/></g></g><circle class="f" cx="89.5" cy="89.5" r="89.5" transform="translate(-35 156)"/></g></svg>