<svg xmlns="http://www.w3.org/2000/svg" xmlns:xlink="http://www.w3.org/1999/xlink" width="50" height="50" viewBox="0 0 50 50"><defs><style>.a{fill:#fff;}.b,.c{fill:#e16a49;}.b{opacity:0;}.d{filter:url(#a);}</style><filter id="a" x="0" y="0" width="50" height="50" filterUnits="userSpaceOnUse"><feOffset dy="3" input="SourceAlpha"/><feGaussianBlur stdDeviation="3" result="b"/><feFlood flood-opacity="0.161"/><feComposite operator="in" in2="b"/><feComposite in="SourceGraphic"/></filter></defs><g transform="translate(9 6)"><g class="d" transform="matrix(1, 0, 0, 1, -9, -6)"><rect class="a" width="32" height="32" rx="5" transform="translate(9 6)"/></g><g transform="translate(4 4)"><path class="b" d="M0,0H24V24H0Z"/><g transform="translate(1.091 1.091)"><path class="c" d="M97.469,68.591,87.433,60.9a.859.859,0,0,0-1.047,0L76.349,68.591A.9.9,0,0,0,76,69.3v2.005a.882.882,0,0,0,.873.891h0a.426.426,0,0,1,.273.1v8.686a1.571,1.571,0,0,0,1.582,1.556h4.909a.5.5,0,0,0,.491-.5l0-5.56a.2.2,0,0,1,.165-.066h5.236a.237.237,0,0,1,.164.056v5.57a.5.5,0,0,0,.491.5h4.909a1.571,1.571,0,0,0,1.582-1.556V72.305a.424.424,0,0,1,.273-.106.882.882,0,0,0,.873-.891V69.3A.9.9,0,0,0,97.469,68.591Zm-.524,2.718h-.566a.43.43,0,0,1-.273-.1l-2.038-1.669a.43.43,0,0,0-.614.068h0a.452.452,0,0,0,.068.626l1.951,1.6a.449.449,0,0,1,.164.348l.055.029v8.778a.579.579,0,0,1-.6.554H90.673V76.474a1.106,1.106,0,0,0-1.145-1.058H84.291a1.106,1.106,0,0,0-1.145,1.058v5.068H78.727a.579.579,0,0,1-.6-.554V72.211l.055-.029a.449.449,0,0,1,.164-.348l1.951-1.6a.452.452,0,0,0,.068-.626h0a.43.43,0,0,0-.614-.068L77.712,71.21a.43.43,0,0,1-.273.1h-.566V69.526a.449.449,0,0,1,.175-.356l9.6-7.352a.43.43,0,0,1,.524,0l9.6,7.352a.449.449,0,0,1,.175.356Z" transform="translate(-76 -60.727)"/><path class="c" d="M93.292,72.526a1.367,1.367,0,0,0-1.354,1.169H88.353A1.367,1.367,0,0,0,87,72.526a1.453,1.453,0,0,0-1.4,1.558,1.746,1.746,0,0,0,.444,1.169,1.747,1.747,0,0,0-.444,1.169A1.453,1.453,0,0,0,87,77.981a1.367,1.367,0,0,0,1.354-1.169h3.585a1.367,1.367,0,0,0,1.354,1.169,1.453,1.453,0,0,0,1.4-1.558,1.747,1.747,0,0,0-.445-1.169,1.746,1.746,0,0,0,.445-1.169A1.453,1.453,0,0,0,93.292,72.526Zm.7,3.893a.7.7,0,1,1-1.4,0,.371.371,0,0,0-.35-.39h-4.2a.374.374,0,0,0-.35.387.7.7,0,1,1-.7-.776v-.779a.784.784,0,1,1,.7-.779.371.371,0,0,0,.35.39h4.2a.374.374,0,0,0,.35-.387.7.7,0,1,1,.7.776v.779A.707.707,0,0,1,93.992,76.419Z" transform="translate(-79.455 -65.954)"/></g></g></g></svg>