<svg xmlns="http://www.w3.org/2000/svg" xmlns:xlink="http://www.w3.org/1999/xlink" width="164" height="136" viewBox="0 0 164 136"><defs><style>.a{fill:#e16a49;}.b{clip-path:url(#a);}.c{fill:#e9d2b1;}.d{fill:#fff;}.e{fill:#f09979;}.f{fill:#5f3930;}.g{fill:#f3eae0;}.h{fill:#af593e;}.i{fill:#e7aa3c;}.j{fill:#b1afa5;}.k{fill:#444;}.l{opacity:0.56;}.m{fill:#2b428e;}</style><clipPath id="a"><rect class="a" width="164" height="136" transform="translate(-6 172.807)"/></clipPath></defs><g class="b" transform="translate(6 -172.807)"><g transform="translate(6.421 228.081)"><g transform="translate(-6.421 14.129)"><path class="c" d="M13.189,384.262c-2.372,3.85-14.942,39.325-16.119,44.507l62.477-2.794c-.823-5.249-9.677-35.077-11.783-39.079,5.855-4.491,12.587-13.308,12.854-21.17C61.1,351.62,48.351,341.7,33.966,341.208S5.553,349.579,6.111,363.682A37.342,37.342,0,0,0,13.189,384.262Z" transform="translate(7.6 -341.188)"/><g transform="translate(22.885 6.593)"><path d="M55.857,364.583a6.867,6.867,0,1,1-6.631-7.1A6.867,6.867,0,0,1,55.857,364.583Z" transform="translate(-42.111 -357.483)"/><path class="d" d="M55.817,365.771a6.867,6.867,0,1,1-6.63-7.1A6.867,6.867,0,0,1,55.817,365.771Z" transform="translate(-42.087 -358.19)"/><path d="M56.71,365.512a5.058,5.058,0,1,1-4.883-5.228A5.057,5.057,0,0,1,56.71,365.512Z" transform="translate(-44.773 -359.149)"/><path class="d" d="M64.277,371.178a1.3,1.3,0,1,1-1.293-1.237A1.267,1.267,0,0,1,64.277,371.178Z" transform="translate(-53.75 -364.9)"/></g><g transform="translate(44.472 6.916)"><path d="M109.158,365.354a6.841,6.841,0,1,1-6.605-7.07A6.842,6.842,0,0,1,109.158,365.354Z" transform="translate(-95.463 -358.28)"/><path class="d" d="M109.119,366.537a6.842,6.842,0,1,1-6.605-7.071A6.841,6.841,0,0,1,109.119,366.537Z" transform="translate(-95.439 -358.984)"/><path d="M110.007,366.279a5.039,5.039,0,1,1-4.864-5.207A5.038,5.038,0,0,1,110.007,366.279Z" transform="translate(-98.114 -359.94)"/><path class="d" d="M117.547,371.922a1.3,1.3,0,1,1-1.287-1.232A1.261,1.261,0,0,1,117.547,371.922Z" transform="translate(-107.059 -365.669)"/></g><path class="e" d="M41.28,391.446a1.826,1.826,0,1,1-1.763-1.888A1.825,1.825,0,0,1,41.28,391.446Z" transform="translate(-16.548 -369.986)"/><path class="e" d="M125.986,395.968a1.826,1.826,0,1,1-1.764-1.886A1.827,1.827,0,0,1,125.986,395.968Z" transform="translate(-66.98 -372.68)"/><path class="f" d="M3.357,365.208a.229.229,0,0,0-.43.014,12.951,12.951,0,0,1-2.939-.138,8.737,8.737,0,0,0-2.972.515,13.79,13.79,0,0,0-5.4,3.235c-3.335,3.154-5.059,7.605-5.808,12.052-.626,3.713-.522,9.725,3.567,11.536,3.337,1.476,5.934-2.41,6.482-5.165.929-4.668-.792-10.256,1.98-14.484.939-1.433,2.719-1.934,3.965-3.022A4.353,4.353,0,0,0,3.357,365.208Z" transform="translate(14.471 -355.403)"/><path class="f" d="M142.129,371.04c1.17,1.168,2.911,1.79,3.751,3.284,2.479,4.406.383,9.864.993,14.585.36,2.786,2.688,6.839,6.116,5.591,4.2-1.528,4.714-7.52,4.342-11.265-.447-4.488-1.865-9.045-4.978-12.419a13.807,13.807,0,0,0-5.165-3.593,8.738,8.738,0,0,0-2.93-.715,12.949,12.949,0,0,1-2.942-.061.229.229,0,0,0-.428-.043A4.355,4.355,0,0,0,142.129,371.04Z" transform="translate(-77.871 -356.122)"/><g transform="translate(28.383 20.441)"><path class="g" d="M77.953,397.478a12.788,12.788,0,0,0-10.683-5.769,11.415,11.415,0,0,0-5.456,1.508c-3.082,1.15-5.833,4.322-6.111,7.317-.212,2.279.864,4.65,2,6.552a15.68,15.68,0,0,0,5.257,5.42,7.676,7.676,0,0,0,6.3.95,11.89,11.89,0,0,0,5.277-4.041C77.191,406.242,80.488,401.639,77.953,397.478Z" transform="translate(-55.675 -391.708)"/><g transform="translate(2.642 2.442)"><path d="M81.341,398.355c-.883-.874-2.468-.629-3.55-.377a31.071,31.071,0,0,1-3.509-.153,2.812,2.812,0,0,0-2.869,1,3.212,3.212,0,0,0-.127,3.043,3.544,3.544,0,0,0,.865,1.417c1.02,1.272,2.14,3.316,3.76,3.619s3.78-2.567,4.438-3.371C81.666,401.921,82.913,399.906,81.341,398.355Z" transform="translate(-67.42 -397.743)"/><path d="M78.309,421.207c-1.683,1.227-3.292,2.54-5.483,1.72-2.029-.761-1.817-2.806-1.75-4.585.012-.32-.485-.391-.5-.066-.1,2.485.04,3.951-1.986,4.869-2.4,1.089-4.836-1.668-6.133-3.274a.142.142,0,0,0-.228.17c1.2,1.934,3.766,4.52,6.333,3.639a3.439,3.439,0,0,0,2.113-2.482,2.76,2.76,0,0,0,1.4,1.923c2.522,1.363,4.493-.012,6.542-1.5A.259.259,0,0,0,78.309,421.207Z" transform="translate(-62.204 -409.842)"/></g></g></g><g transform="translate(186.723 18.902)"><g transform="translate(0 0)"><path class="g" d="M411.518,363.817c1.977,3.212,12.449,32.807,13.428,37.13l-52.113-2.354c.688-4.378,8.085-29.255,9.843-32.592-4.882-3.75-10.494-11.106-10.714-17.664C371.568,336.571,382.2,328.3,394.2,327.9s23.7,6.992,23.227,18.756A31.166,31.166,0,0,1,411.518,363.817Z" transform="translate(-352.192 -323.532)"/><path class="g" d="M419.634,348.308c0,13.138-12.5,23.786-27.909,23.784s-27.9-10.657-27.9-23.795,12.5-23.787,27.91-23.785S419.636,335.169,419.634,348.308Z" transform="translate(-347.382 -321.538)"/><path class="h" d="M387.091,335.678c0,9.492-10.083,17.262-22.846,17.91a20.511,20.511,0,0,1-.422-4.139c0-10.775,8.41-19.88,19.938-22.8A14.388,14.388,0,0,1,387.091,335.678Z" transform="translate(-347.382 -322.802)"/><path class="h" d="M443.573,335.684c0,9.492,10.077,17.264,22.84,17.918a20.532,20.532,0,0,0,.423-4.138c0-10.775-8.4-19.884-19.928-22.81A14.386,14.386,0,0,0,443.573,335.684Z" transform="translate(-394.584 -322.806)"/><path d="M429.315,376.32c0,2.894-4.3,5.619-5.823,5.619-3.73,0-5.987-3.5-6.825-5.621-1.012-2.561,3.182-4.185,6.912-4.185S429.316,373.426,429.315,376.32Z" transform="translate(-378.568 -349.724)"/><g transform="translate(25.521 10.044)"><path d="M386.072,347.733a5.707,5.707,0,1,0,5.513-5.894A5.709,5.709,0,0,0,386.072,347.733Z" transform="translate(-386.069 -341.835)"/><path class="d" d="M386.1,348.711a5.707,5.707,0,1,0,5.513-5.894A5.706,5.706,0,0,0,386.1,348.711Z" transform="translate(-386.088 -342.414)"/><path d="M389.759,348.486a4.2,4.2,0,1,0,4.059-4.342A4.2,4.2,0,0,0,389.759,348.486Z" transform="translate(-388.252 -343.2)"/><path class="d" d="M392.635,353.124a1.082,1.082,0,1,0,1.074-1.028A1.052,1.052,0,0,0,392.635,353.124Z" transform="translate(-389.955 -347.908)"/></g><g transform="translate(50.83 9.531)"><path d="M448.087,346.5a5.728,5.728,0,1,0,5.534-5.917A5.729,5.729,0,0,0,448.087,346.5Z" transform="translate(-448.084 -340.578)"/><path class="d" d="M448.119,347.482a5.728,5.728,0,1,0,5.533-5.916A5.729,5.729,0,0,0,448.119,347.482Z" transform="translate(-448.103 -341.16)"/><path d="M451.786,347.253a4.219,4.219,0,1,0,4.076-4.358A4.219,4.219,0,0,0,451.786,347.253Z" transform="translate(-450.274 -341.948)"/><path class="d" d="M454.671,351.91a1.087,1.087,0,1,0,1.079-1.032A1.058,1.058,0,0,0,454.671,351.91Z" transform="translate(-451.983 -346.674)"/></g><path d="M416.487,397.664c1.4,1.024,2.745,2.12,4.572,1.436,1.693-.633,1.517-2.34,1.462-3.824-.009-.267.405-.326.416-.055.082,2.073-.035,3.3,1.655,4.062,2,.91,4.034-1.389,5.117-2.728a.118.118,0,0,1,.19.142c-1,1.612-3.142,3.768-5.282,3.033a2.867,2.867,0,0,1-1.762-2.071,2.3,2.3,0,0,1-1.17,1.6c-2.1,1.137-3.749-.011-5.457-1.253C416,397.846,416.261,397.5,416.487,397.664Z" transform="translate(-378.347 -363.284)"/><path class="e" d="M384.079,375.228a1.524,1.524,0,1,0,1.473-1.572A1.522,1.522,0,0,0,384.079,375.228Z" transform="translate(-359.37 -350.625)"/><path class="e" d="M473.254,373.255a1.523,1.523,0,1,0,1.472-1.573A1.524,1.524,0,0,0,473.254,373.255Z" transform="translate(-412.151 -349.456)"/><path class="f" d="M352.277,328.044a1.52,1.52,0,0,0-.4-1.078,12.056,12.056,0,0,0-1.908-1.952,9.655,9.655,0,0,0-4.883-2.288,16.42,16.42,0,0,0-9.442,1.714,22.218,22.218,0,0,0-7.865,6.179,33.245,33.245,0,0,0-2.571,3.936,10.721,10.721,0,0,0-1.654,4.527c-.19,2.808,1.861,5.377,4.021,6.959.331.243.761.382,1.11.63a20.193,20.193,0,0,0,4.785,2.744c2.839.988,6.18,1.2,8.393-1.17,1.278-1.371,1.744-3.358,2.126-5.134a27.792,27.792,0,0,1,1.8-6.277,22.512,22.512,0,0,1,3.351-5.2,23.8,23.8,0,0,1,2.141-2.121A2.715,2.715,0,0,0,352.277,328.044Z" transform="translate(-323.538 -320.392)"/><path class="f" d="M468.921,325.186a22.592,22.592,0,0,1,2.334,1.622,21.266,21.266,0,0,1,3.959,4.291,26.256,26.256,0,0,1,2.691,5.54,10.049,10.049,0,0,0,2.811,4.424c2.442,1.843,5.512,1.1,7.988-.277a10.3,10.3,0,0,0,4-3.329,4.608,4.608,0,0,0,.93-.765c1.749-1.822,3.236-4.542,2.6-7.121a10.119,10.119,0,0,0-2.273-3.937,31.278,31.278,0,0,0-3.029-3.239,20.945,20.945,0,0,0-8.312-4.461,15.49,15.49,0,0,0-9.051-.057,9.121,9.121,0,0,0-4.165,2.92,11.456,11.456,0,0,0-1.456,2.123,1.438,1.438,0,0,0-.2,1.068A2.568,2.568,0,0,0,468.921,325.186Z" transform="translate(-408.868 -317.225)"/></g><path class="f" d="M424.569,385.3c-.019-.025-.037-.05-.056-.075,0,0,0-.009,0-.013a5.835,5.835,0,0,0-.979-1.531,4.5,4.5,0,0,0-.474-.6c-.285-.3-1.167-.9-1.573-.487-.76.782,2.34,2.718,2.735,2.925a.2.2,0,0,0,.255-.075A.091.091,0,0,0,424.569,385.3Z" transform="translate(-381.439 -355.828)"/><path class="f" d="M439.181,380.1c-.586.051-.869,1.154-.995,1.572a4.565,4.565,0,0,0-.275,1.888c-.027.079-.057.156-.081.237a.185.185,0,0,0,.32.174,6.454,6.454,0,0,0,1.669-2.644C439.94,380.758,439.944,380.036,439.181,380.1Z" transform="translate(-391.179 -354.438)"/></g><g transform="translate(81.93 19.823)"><g transform="translate(14.051 0)"><path class="g" d="M36.186,18.977s-2.542-2.3-1.935-6.928S38.57,1.679,38.57,1.679a26.114,26.114,0,0,1,5.988,5.545,42.266,42.266,0,0,1,3.615,7.464L36.5,19.867" transform="translate(-34.157 -1.679)"/><path class="e" d="M39.639,23.756a6.5,6.5,0,0,1-1.564-5.6c.489-3.741,3.489-8.38,3.489-8.38A21.071,21.071,0,0,1,46.4,14.258a34.149,34.149,0,0,1,2.922,6.032l-9.435,4.185" transform="translate(-36.441 -6.491)"/></g><g transform="translate(43.159 7.043)"><path class="g" d="M116.548,36.416s3-1.633,3.485-6.277-1.8-11.1-1.8-11.1a25.924,25.924,0,0,0-7.1,3.976,41.915,41.915,0,0,0-5.24,6.4l10.154,7.8" transform="translate(-105.887 -19.034)"/><path class="e" d="M116.76,40.541a6.463,6.463,0,0,0,2.815-5.073c.39-3.754-1.455-8.973-1.455-8.973a20.939,20.939,0,0,0-5.741,3.212,33.834,33.834,0,0,0-4.235,5.174l8.206,6.3" transform="translate(-107.228 -23.467)"/></g><path class="g" d="M10.776,64.778A49.184,49.184,0,0,0,1.2,80.759l19.531,19.335L44.882,80.759c-.624-3.2-2.281-4.793-3.5-8.858,6.2-3.07,19.807-9.052,21.461-16.239,2.969-12.9-14.106-25.506-27.265-28.569S1.661,30.588-.354,43.67C-1.1,48.511,1.743,55.061,10.776,64.778Z" transform="translate(0.467 -16.337)"/><g transform="translate(14.875 16.818)"><path d="M48.778,50.794a6.256,6.256,0,1,1-4.692-7.508A6.233,6.233,0,0,1,48.778,50.794Z" transform="translate(-36.333 -43.122)"/><path class="i" d="M48.536,51.843a6.256,6.256,0,1,1-4.691-7.507A6.234,6.234,0,0,1,48.536,51.843Z" transform="translate(-36.189 -43.745)"/><path d="M49.874,51.343a4.608,4.608,0,1,1-3.455-5.53A4.592,4.592,0,0,1,49.874,51.343Z" transform="translate(-38.917 -44.649)"/><path class="d" d="M49.12,51.028a.868.868,0,1,1-.687-.976A.842.842,0,0,1,49.12,51.028Z" transform="translate(-42.854 -47.229)"/></g><g transform="translate(37.417 21.658)"><path d="M104.324,62.72a6.256,6.256,0,1,1-4.69-7.508A6.234,6.234,0,0,1,104.324,62.72Z" transform="translate(-91.879 -55.048)"/><path class="i" d="M104.083,63.771a6.256,6.256,0,1,1-4.692-7.508A6.234,6.234,0,0,1,104.083,63.771Z" transform="translate(-91.736 -55.672)"/><path d="M105.42,63.271a4.608,4.608,0,1,1-3.455-5.53A4.593,4.593,0,0,1,105.42,63.271Z" transform="translate(-94.463 -56.576)"/><path class="d" d="M105.37,62.483a1.018,1.018,0,1,1-.807-1.144A.989.989,0,0,1,105.37,62.483Z" transform="translate(-98.643 -58.773)"/></g><path class="e" d="M31.349,70.977a1.714,1.714,0,1,1-1.285-2.058A1.708,1.708,0,0,1,31.349,70.977Z" transform="translate(-16.427 -41.606)"/><path class="e" d="M120.3,88.354a1.714,1.714,0,1,1-1.286-2.057A1.708,1.708,0,0,1,120.3,88.354Z" transform="translate(-69.283 -51.932)"/><g transform="translate(8.985 33.154)"><path d="M31.289,83.616c-.893-.051-1.77-.254-2.666-.237a19.35,19.35,0,0,0-2.122.234,21.567,21.567,0,0,1-2.562.218,10.575,10.575,0,0,1-2.189-.368.072.072,0,0,0-.059.118c.954.872,2.925.518,4.082.39.819-.091,1.632-.222,2.451-.3,1.032-.1,2.051.226,3.073.074A.064.064,0,0,0,31.289,83.616Z" transform="translate(-21.673 -83.378)"/><path d="M35.033,86.579a23.144,23.144,0,0,0-2.589.5,24.308,24.308,0,0,1-2.919.3c-.061,0-.062.1-.008.112,1.7.539,3.862-.486,5.541-.786C35.139,86.688,35.113,86.571,35.033,86.579Z" transform="translate(-26.31 -85.28)"/><path d="M36.459,91.358c-1.895.586-3.629,1.657-5.461,2.414a.083.083,0,0,0,.051.155c1.921-.512,3.621-1.7,5.445-2.465C36.552,91.437,36.519,91.339,36.459,91.358Z" transform="translate(-27.187 -88.118)"/></g><g transform="translate(44.686 38.176)"><path d="M112.215,95.759c.824.347,1.7.553,2.5.964a19.248,19.248,0,0,1,1.8,1.148,21.783,21.783,0,0,0,2.205,1.328,10.6,10.6,0,0,0,2.128.637.072.072,0,0,1,0,.132c-1.238.361-2.854-.827-3.837-1.455-.7-.444-1.368-.92-2.07-1.355-.882-.547-1.941-.7-2.792-1.29A.063.063,0,0,1,112.215,95.759Z" transform="translate(-111.122 -95.754)"/><path d="M113.026,99.07a23.529,23.529,0,0,1,2.109,1.591,24.263,24.263,0,0,0,2.492,1.56c.051.031.013.114-.043.105-1.766-.269-3.259-2.144-4.634-3.156C112.883,99.121,112.958,99.026,113.026,99.07Z" transform="translate(-111.595 -97.717)"/><path d="M109.738,102.765c1.447,1.364,2.535,3.091,3.851,4.581.062.071-.043.179-.114.117-1.5-1.309-2.51-3.128-3.814-4.621C109.621,102.8,109.692,102.72,109.738,102.765Z" transform="translate(-109.65 -99.912)"/></g><path class="j" d="M13.211,121.047s2.109,17.342,9.579,20.268,9.121,6.3,9.121,6.3l-8.749,8.75L3.631,137.029a15.012,15.012,0,0,1,2.752-7.264C7.668,127.874,13.211,121.047,13.211,121.047Z" transform="translate(-1.968 -72.606)"/><path class="k" d="M87.6,47.618" transform="translate(-51.861 -28.976)"/><path d="M75.152,80.51c-1.352-.908-3.19-.216-4.666-.612-.662-.177-1.419-.442-1.8.069-.892.5-.373,1.967-.053,2.635a6.334,6.334,0,0,0,2.482,2.875c1.143.534,2.189-.126,3.036-.894C75.154,83.67,76.8,81.616,75.152,80.51Z" transform="translate(-40.326 -48.021)"/><path class="d" d="M83.268,84.481a.085.085,0,0,0-.094-.108c-.686.139-.846.8-.718,1.42.015.075.118.05.114-.022,0-.014,0-.028,0-.041a.1.1,0,0,0,.155.039A2.2,2.2,0,0,0,83.268,84.481Zm-.676,1.134a.077.077,0,0,0-.029.029c-.02-.457.053-.915.515-1.07A1.638,1.638,0,0,1,82.592,85.615Z" transform="translate(-48.781 -50.814)"/><path d="M69.679,95.41c-2.643,3.624-11.412,3.144-9.8-2.692a.173.173,0,0,0-.327-.111c-2.378,5.75-10.321,1.895-10.923-3.057-.014-.114-.181-.077-.172.033.381,5.108,7.927,8.663,10.9,4.132-.375,5.2,7.914,5.621,10.625,1.9C70.119,95.425,69.817,95.221,69.679,95.41Z" transform="translate(-28.602 -53.85)"/></g></g><g class="l" transform="translate(-15 38.807)"><g transform="translate(-301.391 34.009) rotate(-22)"><g transform="translate(380.1 376.039)"><path class="m" d="M396.3,385.173l-5.925,1.564a.974.974,0,0,0-.725.943v7.285H388.61a1.869,1.869,0,0,0,0,3.739h.414a1.86,1.86,0,0,0,1.843-1.661h.021v-7.206l5.385-1.662V393.3h-1.035a1.869,1.869,0,0,0,0,3.739h.414a1.866,1.866,0,0,0,1.864-1.869v-9.057A.973.973,0,0,0,396.3,385.173Z" transform="translate(-383.515 -380.703)"/><path class="m" d="M388.6,376.065l-4.981,1.175a.831.831,0,0,0-.618.8v6.909h-1.035a1.869,1.869,0,0,0,0,3.739h.414a1.86,1.86,0,0,0,1.843-1.661h.021v-6.719l4.8-1.113a.974.974,0,0,0,.753-.95v-1.234A.973.973,0,0,0,388.6,376.065Z" transform="translate(-380.1 -376.039)"/></g></g><path class="m" d="M335.25,316H330a1.75,1.75,0,0,0-1.75,1.75v7h-2.625A2.625,2.625,0,0,0,323,327.374h0A2.625,2.625,0,0,0,325.625,330h1.75A2.625,2.625,0,0,0,330,327.374V323a1.75,1.75,0,0,1,1.75-1.75h3.5A1.75,1.75,0,0,0,337,319.5v-1.75A1.75,1.75,0,0,0,335.25,316Z" transform="matrix(0.809, -0.588, 0.588, 0.809, -316.83, 107.657)"/><g transform="matrix(0.899, 0.438, -0.438, 0.899, -87.374, -322.764)"><g transform="translate(380.1 376.039)"><path class="m" d="M396.3,385.173l-5.925,1.564a.974.974,0,0,0-.725.943v7.285H388.61a1.869,1.869,0,0,0,0,3.739h.414a1.86,1.86,0,0,0,1.843-1.661h.021v-7.206l5.385-1.662V393.3h-1.035a1.869,1.869,0,0,0,0,3.739h.414a1.866,1.866,0,0,0,1.864-1.869v-9.057A.973.973,0,0,0,396.3,385.173Z" transform="translate(-383.515 -380.703)"/><path class="m" d="M388.6,376.065l-4.981,1.175a.831.831,0,0,0-.618.8v6.909h-1.035a1.869,1.869,0,0,0,0,3.739h.414a1.86,1.86,0,0,0,1.843-1.661h.021v-6.719l4.8-1.113a.974.974,0,0,0,.753-.95v-1.234A.973.973,0,0,0,388.6,376.065Z" transform="translate(-380.1 -376.039)"/></g></g><path class="m" d="M335.25,316H330a1.75,1.75,0,0,0-1.75,1.75v7h-2.625A2.625,2.625,0,0,0,323,327.374h0A2.625,2.625,0,0,0,325.625,330h1.75A2.625,2.625,0,0,0,330,327.374V323a1.75,1.75,0,0,1,1.75-1.75h3.5A1.75,1.75,0,0,0,337,319.5v-1.75A1.75,1.75,0,0,0,335.25,316Z" transform="translate(-18 -126.999)"/><g transform="matrix(0.978, -0.208, 0.208, 0.978, -188.935, -117.142)"><g transform="translate(380.1 376.039)"><path class="m" d="M396.3,385.173l-5.925,1.564a.974.974,0,0,0-.725.943v7.285H388.61a1.869,1.869,0,0,0,0,3.739h.414a1.86,1.86,0,0,0,1.843-1.661h.021v-7.206l5.385-1.662V393.3h-1.035a1.869,1.869,0,0,0,0,3.739h.414a1.866,1.866,0,0,0,1.864-1.869v-9.057A.973.973,0,0,0,396.3,385.173Z" transform="translate(-383.515 -380.703)"/><path class="m" d="M388.6,376.065l-4.981,1.175a.831.831,0,0,0-.618.8v6.909h-1.035a1.869,1.869,0,0,0,0,3.739h.414a1.86,1.86,0,0,0,1.843-1.661h.021v-6.719l4.8-1.113a.974.974,0,0,0,.753-.95v-1.234A.973.973,0,0,0,388.6,376.065Z" transform="translate(-380.1 -376.039)"/></g></g><g transform="translate(-88 -2.731)"><g transform="translate(103 175.5)"><path class="m" d="M124.949,181.821a.949.949,0,0,0-.949.949v3.321a.949.949,0,1,0,1.9,0V182.77A.949.949,0,0,0,124.949,181.821Zm3.321-3.32a.949.949,0,0,0-.949.948v9.488a.949.949,0,0,0,1.9,0v-9.488A.948.948,0,0,0,128.269,178.5Z" transform="translate(-114.038 -177.077)"/><path class="m" d="M103.949,180.718h0a.949.949,0,0,0-.949.949v1.9a.948.948,0,0,0,.949.949h0a.949.949,0,0,0,.949-.949v-1.9A.949.949,0,0,0,103.949,180.718Zm3.32-2.846h0a.949.949,0,0,0-.949.949v8.064a.949.949,0,0,0,.949.949h0a.948.948,0,0,0,.949-.949v-8.064A.949.949,0,0,0,107.269,177.872Zm13.282,3.321a.948.948,0,0,0-.949.949v1.423a.949.949,0,1,0,1.9,0v-1.423A.949.949,0,0,0,120.551,181.193ZM110.59,175.5a.949.949,0,0,0-.949.949v12.333a.949.949,0,1,0,1.9,0V176.449A.949.949,0,0,0,110.59,175.5Z" transform="translate(-103 -175.5)"/></g></g><g transform="translate(101 4.703)"><g transform="translate(240 175.297)"><path class="m" d="M253.428,175.33l-7.3,1.92a.973.973,0,0,0-.725.941v7.52h-1.216a2.189,2.189,0,1,0,0,4.378h.487a2.182,2.182,0,0,0,2.165-1.946h.024v-7.3l6.324-1.946v4.865h-1.216a2.189,2.189,0,1,0,0,4.378h.486a2.189,2.189,0,0,0,2.189-2.189V176.27A.973.973,0,0,0,253.428,175.33Z" transform="translate(-241.027 -175.297)"/><path class="m" d="M255.811,184.162h1.459a.73.73,0,1,0,0-1.459h-1.459a.73.73,0,0,0,0,1.459Zm-13.622,1.459H240.73a.73.73,0,1,0,0,1.459h1.459a.73.73,0,1,0,0-1.459Zm15.081,0h-1.459a.73.73,0,0,0,0,1.459h1.459a.73.73,0,1,0,0-1.459ZM242.189,182.7H240.73a.73.73,0,1,0,0,1.459h1.459a.73.73,0,1,0,0-1.459Z" transform="translate(-240 -179.1)"/></g></g></g><g transform="translate(1 121.307)"><g transform="translate(58 56.5)"><path class="m" d="M186.674,119.593a1.86,1.86,0,1,0,1.86,1.86A1.861,1.861,0,0,0,186.674,119.593Zm0-16.093a17.674,17.674,0,1,0,5.447,34.484,5.649,5.649,0,0,1,3.929-9.714h.634v-8.034a3.994,3.994,0,0,1,3.99-3.99h2.963A17.672,17.672,0,0,0,186.674,103.5Zm-12.856,15.94a1.4,1.4,0,0,1-1.363-1.7,13.924,13.924,0,0,1,10.773-10.557,1.4,1.4,0,1,1,.56,2.734,11.129,11.129,0,0,0-8.61,8.437A1.4,1.4,0,0,1,173.819,119.44Zm6.273.091a1.4,1.4,0,1,1-2.728-.587,8.891,8.891,0,0,1,6.673-6.768,1.4,1.4,0,1,1,.625,2.719A6.092,6.092,0,0,0,180.092,119.531Zm6.582,6.574a4.651,4.651,0,1,1,4.651-4.651A4.656,4.656,0,0,1,186.674,126.1Z" transform="translate(-169 -103.5)"/><path class="m" d="M209.114,119.7h-6.66a1.664,1.664,0,0,0-1.664,1.664v10.36h-2.96a3.33,3.33,0,1,0,0,6.66h1.295a3.329,3.329,0,0,0,3.329-3.329v-7.03a1.665,1.665,0,0,1,1.665-1.665h4.994a1.665,1.665,0,0,0,1.665-1.665v-3.329A1.665,1.665,0,0,0,209.114,119.7Z" transform="translate(-170.779 -104.63)"/></g></g></g></svg>