<svg xmlns="http://www.w3.org/2000/svg" width="32" height="32" viewBox="0 0 32 32"><defs><style>.a{fill:#fff;opacity:0;}.b{fill:#2b428e;}</style></defs><rect class="a" width="32" height="32"/><g transform="translate(0 1.422)"><path class="b" d="M1982.855,2375.73a5.355,5.355,0,0,0-7.032-2.809l-6.125,2.628a.5.5,0,0,0-.129.055l-6.918,2.969a5.355,5.355,0,1,0,4.223,9.841l13.172-5.652a5.354,5.354,0,0,0,2.809-7.033Zm-16.367,11.784a4.375,4.375,0,0,1-3.45-8.041l6.83-2.931.178.051a4.831,4.831,0,0,1,2.691,7.315l-.857,1.291Zm15.509-8.05a4.343,4.343,0,0,1-2.337,2.4l-6.136,2.633.029-.044a5.813,5.813,0,0,0-2.369-8.473l5.025-2.156a4.375,4.375,0,0,1,5.788,5.643Z" transform="translate(-1951.292 -2359.558)"/><path class="b" d="M1986.9,2406.775l-3.739,1.6a5.339,5.339,0,0,0-1.45.921.49.49,0,0,0,.651.732,4.358,4.358,0,0,1,1.185-.752l3.739-1.6a.49.49,0,0,0-.386-.9Z" transform="translate(-1969.728 -2388.082)"/><path class="b" d="M1974.709,2429.944a.489.489,0,0,0-.658.215c-.078.153-.149.313-.212.472a.49.49,0,0,0,.913.357c.051-.131.109-.261.173-.386A.489.489,0,0,0,1974.709,2429.944Z" transform="translate(-1963.284 -2407.366)"/><path class="b" d="M1917.887,2313.867a6.761,6.761,0,0,1-2.343-1.92,10.349,10.349,0,0,1-1.952-7.434c.323-4.615-.34-6.973-.992-8.156a40,40,0,0,1,5.042,1.248c5.568,1.787,8.065,4.114,9.18,5.752a7.429,7.429,0,0,1,.978,6.3.49.49,0,0,0,.949.246,8.452,8.452,0,0,0-.593-6.219s0-.006,0-.008a6.7,6.7,0,0,1,.483-1.965,5.234,5.234,0,0,0,.429-1.887c1.1.739,2.982,2.256,3.476,4.281a4.951,4.951,0,0,1-1,4.125.49.49,0,1,0,.8.568,5.884,5.884,0,0,0,1.152-4.929c-.818-3.344-4.643-5.336-4.806-5.419a.49.49,0,0,0-.7.546,3.62,3.62,0,0,1-.269,2.376,10.815,10.815,0,0,0-.35,1.076c-1.8-2.4-4.977-4.348-9.447-5.78a38.934,38.934,0,0,0-6.491-1.486.49.49,0,0,0-.27.928c.02.01,1.947,1.256,1.452,8.336a11.243,11.243,0,0,0,2.2,8.163,7.571,7.571,0,0,0,2.694,2.165.49.49,0,0,0,.374-.906Z" transform="translate(-1910.883 -2295.177)"/><path class="b" d="M1948.056,2325.824a.49.49,0,1,0-.465.862,13.23,13.23,0,0,1,3.02,2.467,12.523,12.523,0,0,1,3.387,7.669.49.49,0,0,0,.489.457h.034a.49.49,0,0,0,.455-.522,13.494,13.494,0,0,0-3.646-8.268A14.024,14.024,0,0,0,1948.056,2325.824Z" transform="translate(-1941.239 -2320.651)"/></g></svg>