<svg xmlns="http://www.w3.org/2000/svg" width="60" height="60" viewBox="0 0 60 60"><defs><style>.a{fill:#efb2a2;}.b{fill:#fff;}.c{fill:#333;}.d{fill:#e16a49;}</style></defs><circle class="a" cx="30" cy="30" r="30"/><g transform="translate(15.778 12.841)"><g transform="translate(0 0)"><path class="b" d="M689.724,408.5c-7.719,0-14-5.558-14-12.391,0-9.513,12.983-21.9,13.537-22.426a.677.677,0,0,1,.926,0c.554.524,13.537,12.913,13.537,22.426C703.724,402.938,697.443,408.5,689.724,408.5Z" transform="translate(-675.724 -373.496)"/><path class="b" d="M676.4,395.337c0,6.107,5.683,11.074,12.664,11.074s12.662-4.967,12.662-11.074c0-7.983-10.328-18.7-12.662-21.022C686.735,376.635,676.4,387.354,676.4,395.337Z" transform="translate(-675.066 -372.727)"/><path class="c" d="M690.187,373.68a.677.677,0,0,0-.926,0c-.554.524-13.537,12.913-13.537,22.426,0,6.833,6.281,12.391,14,12.391s14-5.558,14-12.391C703.724,386.592,690.741,374.2,690.187,373.68Zm-.463,33.5c-6.98,0-12.664-4.967-12.664-11.074,0-7.983,10.333-18.7,12.664-21.021,2.334,2.32,12.662,13.039,12.662,21.021C702.386,402.213,696.706,407.18,689.724,407.18Z" transform="translate(-675.724 -373.496)"/></g><g transform="translate(3.996 8.31)"><path class="d" d="M684.646,399.719c.132.008.268.012.4.012a7.016,7.016,0,0,0,1.019-.074.667.667,0,0,0,.514-.386.649.649,0,0,0-.059-.636c-5.347-7.74.012-19.807.067-19.928a.65.65,0,0,0-.238-.813.673.673,0,0,0-.853.087c-.3.3-7.363,7.554-7.731,13.448A7.621,7.621,0,0,0,684.646,399.719Zm-5.542-8.208c.209-3.349,2.956-7.364,5.033-9.951-1.245,4.121-2.556,11.208.672,16.848-.028,0-.055,0-.083,0A6.3,6.3,0,0,1,679.1,391.512Z" transform="translate(-677.752 -377.782)"/></g></g></svg>