<svg xmlns="http://www.w3.org/2000/svg" width="60" height="60" viewBox="0 0 60 60"><defs><style>.a{fill:#efb2a2;}.b{fill:#fff;}.c{fill:#333;}.d{fill:#e16a49;}</style></defs><circle class="a" cx="30" cy="30" r="30"/><g transform="translate(3 -3)"><g transform="translate(24.68 17.841)"><path class="b" d="M678.7,380.927a2.82,2.82,0,0,1-2.972-2.631c0-2.02,2.756-4.65,2.874-4.761a.144.144,0,0,1,.2,0c.117.111,2.874,2.741,2.874,4.761A2.82,2.82,0,0,1,678.7,380.927Z" transform="translate(-675.724 -373.496)"/><path class="b" d="M676.4,378.778a2.713,2.713,0,0,0,5.377,0c0-1.695-2.193-3.971-2.688-4.463C678.6,374.807,676.4,377.083,676.4,378.778Z" transform="translate(-676.118 -373.978)"/><path class="c" d="M678.795,373.535a.144.144,0,0,0-.2,0c-.118.111-2.874,2.741-2.874,4.761a2.995,2.995,0,0,0,5.945,0C681.669,376.277,678.912,373.647,678.795,373.535Zm-.1,7.112a2.54,2.54,0,0,1-2.689-2.351c0-1.695,2.194-3.971,2.689-4.463.5.492,2.688,2.768,2.688,4.463A2.539,2.539,0,0,1,678.7,380.648Z" transform="translate(-675.724 -373.496)"/><g transform="translate(0.848 1.764)"><path class="d" d="M679.215,382.439l.086,0a1.491,1.491,0,0,0,.216-.016.142.142,0,0,0,.109-.082.138.138,0,0,0-.013-.135c-1.135-1.643,0-4.205.014-4.231a.138.138,0,0,0-.051-.173.143.143,0,0,0-.181.019c-.064.065-1.563,1.6-1.641,2.855A1.618,1.618,0,0,0,679.215,382.439Zm-1.177-1.743a4.454,4.454,0,0,1,1.069-2.113,4.714,4.714,0,0,0,.143,3.577h-.017A1.337,1.337,0,0,1,678.039,380.7Z" transform="translate(-677.752 -377.782)"/></g></g><g transform="translate(7.5 21.758)"><path class="b" d="M1624.8-1717.184h-2.124a.925.925,0,0,0-.9.717l-1.11,4.749a2.35,2.35,0,0,1-2.3,1.821h-16.5a2.348,2.348,0,0,1-2.3-1.821l-1.11-4.749a.925.925,0,0,0-.9-.717h-2.124a1.056,1.056,0,0,0-1.028.807l-2.307,9.406h36.043l-2.306-9.406A1.057,1.057,0,0,0,1624.8-1717.184Z" transform="translate(-1590.117 1718.035)"/><path class="b" d="M1593.95-1694.878h10.156a.426.426,0,0,1,.426.425.426.426,0,0,1-.426.426h-9.73v.921h31.481v-.921h-9.73a.425.425,0,0,1-.425-.426.425.425,0,0,1,.425-.425h10.156a1.993,1.993,0,0,0,1.99-1.99v-7.231h-36.312v7.231A1.992,1.992,0,0,0,1593.95-1694.878Z" transform="translate(-1590.117 1718.035)"/><path class="b" d="M1590.968-1705.535a.585.585,0,0,0,.585.585h37.128a.586.586,0,0,0,.585-.585.586.586,0,0,0-.585-.585h-37.128A.586.586,0,0,0,1590.968-1705.535Z" transform="translate(-1590.117 1718.035)"/><path class="c" d="M1604.532-1694.453a.426.426,0,0,0-.426-.425H1593.95a.426.426,0,0,1,.426.425v.426h9.73A.426.426,0,0,0,1604.532-1694.453Z" transform="translate(-1590.117 1718.035)"/><path class="c" d="M1628.273-1704.1v7.231a1.993,1.993,0,0,1-1.99,1.99.425.425,0,0,1,.425.425.426.426,0,0,1-.425.426h-.426v.921h-31.481v-.921h-.426a.425.425,0,0,1-.425-.426.425.425,0,0,1,.425-.425,1.992,1.992,0,0,1-1.989-1.99v-7.231h-.408a1.421,1.421,0,0,1-.444-.077v7.308a2.845,2.845,0,0,0,2.416,2.809v1.379a.425.425,0,0,0,.425.425h32.333a.425.425,0,0,0,.425-.425v-1.379a2.845,2.845,0,0,0,2.416-2.809v-7.308a1.42,1.42,0,0,1-.443.077Z" transform="translate(-1590.117 1718.035)"/><path class="c" d="M1593.95-1694.878a.425.425,0,0,0-.425.425.425.425,0,0,0,.425.426h.426v-.426A.426.426,0,0,0,1593.95-1694.878Z" transform="translate(-1590.117 1718.035)"/><path class="d" d="M1591.535-1704.95h.018a.585.585,0,0,1-.585-.585.586.586,0,0,1,.585-.585.426.426,0,0,1-.335-.163.421.421,0,0,1-.078-.364l.068-.277a1.434,1.434,0,0,0-1.091,1.389,1.432,1.432,0,0,0,.992,1.359v-.348A.426.426,0,0,1,1591.535-1704.95Z" transform="translate(-1590.117 1718.035)"/><path class="d" d="M1629.026-1706.924l.068.277a.425.425,0,0,1-.079.364.424.424,0,0,1-.334.163.586.586,0,0,1,.585.585.586.586,0,0,1-.585.585h.017a.426.426,0,0,1,.426.426v.348a1.433,1.433,0,0,0,.993-1.359A1.434,1.434,0,0,0,1629.026-1706.924Z" transform="translate(-1590.117 1718.035)"/><path class="d" d="M1628.7-1704.95h-37.163a.426.426,0,0,0-.426.426v.348a1.421,1.421,0,0,0,.444.077h37.128a1.42,1.42,0,0,0,.443-.077v-.348A.426.426,0,0,0,1628.7-1704.95Z" transform="translate(-1590.117 1718.035)"/><path class="c" d="M1592.095-1706.971l2.307-9.406a1.056,1.056,0,0,1,1.028-.807h2.124a.925.925,0,0,1,.9.717l1.11,4.749a2.348,2.348,0,0,0,2.3,1.821h16.5a2.35,2.35,0,0,0,2.3-1.821l1.11-4.749a.925.925,0,0,1,.9-.717h2.124a1.057,1.057,0,0,1,1.028.807l2.306,9.406h.543a1.4,1.4,0,0,1,.345.047l-2.368-9.656a1.9,1.9,0,0,0-1.854-1.455h-2.124a1.772,1.772,0,0,0-1.733,1.374l-1.11,4.749a1.5,1.5,0,0,1-1.468,1.164h-16.5a1.5,1.5,0,0,1-1.469-1.164l-1.11-4.749a1.772,1.772,0,0,0-1.732-1.374h-2.124a1.906,1.906,0,0,0-1.855,1.455l-2.367,9.656a1.4,1.4,0,0,1,.345-.047Z" transform="translate(-1590.117 1718.035)"/><path class="d" d="M1591.218-1706.283a.426.426,0,0,0,.335.163h37.128a.424.424,0,0,0,.334-.163.425.425,0,0,0,.079-.364l-.068-.277a1.4,1.4,0,0,0-.345-.047h-37.128a1.4,1.4,0,0,0-.345.047l-.068.277A.421.421,0,0,0,1591.218-1706.283Z" transform="translate(-1590.117 1718.035)"/><path class="c" d="M1615.7-1694.453a.425.425,0,0,0,.425.426h9.73v-.426a.425.425,0,0,1,.426-.425h-10.156A.425.425,0,0,0,1615.7-1694.453Z" transform="translate(-1590.117 1718.035)"/><path class="c" d="M1625.857-1694.453v.426h.426a.426.426,0,0,0,.425-.426.425.425,0,0,0-.425-.425A.425.425,0,0,0,1625.857-1694.453Z" transform="translate(-1590.117 1718.035)"/></g></g></svg>