<svg xmlns="http://www.w3.org/2000/svg" width="22" height="22" viewBox="0 0 22 22"><defs><style>.a{fill:#fff;opacity:0;}.b{fill:#2b428e;}.c{fill:none;stroke:#2b428e;}</style></defs><rect class="a" width="22" height="22"/><path class="b" d="M331.622,296.631a2.673,2.673,0,0,0,2.59-2.743V283.374a2.673,2.673,0,0,0-2.59-2.743h-3.836a2.822,2.822,0,0,0-2.274,1.171l-.832,1.121H316.8a2.675,2.675,0,0,0-2.591,2.746v8.219a2.673,2.673,0,0,0,2.591,2.743h14.819Zm-14.819-.949a1.749,1.749,0,0,1-1.695-1.794v-8.219a1.75,1.75,0,0,1,1.695-1.8H324.9a.439.439,0,0,0,.352-.181l.967-1.3a1.948,1.948,0,0,1,1.57-.809h3.836a1.749,1.749,0,0,1,1.695,1.795v10.514a1.749,1.749,0,0,1-1.695,1.794Z" transform="translate(-313.212 -277.631)"/><g transform="translate(-611.5 -466)"><line class="c" y2="6" transform="translate(622.5 475.5)"/><line class="c" x1="6" transform="translate(619.5 478.5)"/></g></svg>