<svg xmlns="http://www.w3.org/2000/svg" width="22" height="22" viewBox="0 0 22 22"><defs><style>.a{fill:#2b428e;opacity:0;}.b{fill:none;stroke:#2b428e;stroke-linecap:round;stroke-linejoin:round;}</style></defs><path class="a" d="M0,0H22V22H0Z"/><g transform="translate(-829.713 -715)"><ellipse class="b" cx="3.158" cy="3.158" rx="3.158" ry="3.158" transform="translate(837.555 722.842)"/><path class="b" d="M562.851,23.287l-1.759-.074-1.674-.07-.581-1.113.9-1.414,1.146-1.807a10.039,10.039,0,0,0-1.705-1.713l-1.823,1.165-1.412.9-1.115-.578-.075-1.674-.082-1.81a9.342,9.342,0,0,0-3.335,0l-.082,1.81-.075,1.674-1.115.578-1.411-.9L546.826,17.1a10.054,10.054,0,0,0-1.712,1.722l1.151,1.785.908,1.407-.573,1.117-1.673.083-1.78.088a9.316,9.316,0,0,0,0,3.307l1.78.088,1.673.083.573,1.117-.908,1.407-1.151,1.785a10.054,10.054,0,0,0,1.712,1.722l1.823-1.166,1.411-.9,1.115.578.075,1.673.082,1.81a9.342,9.342,0,0,0,3.335,0l.082-1.81.075-1.673,1.115-.578,1.412.9,1.823,1.166a10.042,10.042,0,0,0,1.705-1.714l-1.146-1.806-.9-1.415.581-1.113,1.674-.07,1.759-.073a9.348,9.348,0,0,0,0-3.33Z" transform="translate(287.713 701.048)"/></g></svg>