<svg xmlns="http://www.w3.org/2000/svg" width="22" height="22" viewBox="0 0 22 22"><defs><style>.a{fill:#2b428e;opacity:0;}.b{fill:none;stroke:#2b428e;stroke-miterlimit:10;}</style></defs><path class="a" d="M0,0H22V22H0Z"/><g transform="translate(-120.808 -60.966)"><path class="b" d="M128.279,81.558h-5.294a1.111,1.111,0,0,1-1.177-1.031V69.178a.994.994,0,0,1,.462-.819l8.823-6.181a1.311,1.311,0,0,1,1.429,0l8.824,6.181a.993.993,0,0,1,.462.819V80.527a1.111,1.111,0,0,1-1.176,1.031h-5.294" transform="translate(0 0)"/><path class="b" d="M134.855,93.6l.013-6.59a1.042,1.042,0,0,1,1.053-1.031h4.211a1.042,1.042,0,0,1,1.053,1.031l.039,6.59" transform="translate(-6.185 -11.631)"/></g></svg>