<svg id="on-boy" xmlns="http://www.w3.org/2000/svg" width="52" height="70" viewBox="0 0 52 70">
  <rect id="사각형_2318" data-name="사각형 2318" width="52" height="70" rx="10" fill="#e16a49"/>
  <g id="구성_요소_229_6" data-name="구성 요소 229 – 6" transform="translate(10 8.281)">
    <g id="그룹_3161" data-name="그룹 3161" transform="translate(-253.338 -129.827)">
      <g id="그룹_3149" data-name="그룹 3149" transform="translate(256.624 141.262)">
        <path id="패스_6388" data-name="패스 6388" d="M271.094,182.326a11.885,11.885,0,0,1-3.519-.651l-.292-.086a.619.619,0,0,1-.416-.764.6.6,0,0,1,.75-.424l.294.087a10.97,10.97,0,0,0,3.182.6,12.463,12.463,0,0,0,10.033-4.906.6.6,0,0,1,.849-.121.626.626,0,0,1,.119.865A13.674,13.674,0,0,1,271.094,182.326Z" transform="translate(-266.844 -175.938)" fill="#fff"/>
      </g>
      <g id="그룹_3150" data-name="그룹 3150" transform="translate(270.785 141.262)">
        <path id="패스_6389" data-name="패스 6389" d="M335.573,181.58a13.7,13.7,0,0,1-10.371-4.613.627.627,0,0,1,.051-.872.6.6,0,0,1,.856.052,12.5,12.5,0,0,0,9.464,4.2c.123,0,.245,0,.368-.008l.065,0a.618.618,0,0,1,.038,1.235l-.064,0C335.845,181.576,335.71,181.58,335.573,181.58Z" transform="translate(-325.05 -175.939)" fill="#fff"/>
      </g>
      <g id="그룹_3151" data-name="그룹 3151" transform="translate(265.963 155.597)">
        <path id="패스_6390" data-name="패스 6390" d="M308.8,235.967a5.05,5.05,0,0,1-3.368-1.15.626.626,0,0,1-.041-.873.6.6,0,0,1,.856-.042,4.346,4.346,0,0,0,5.105,0,.6.6,0,0,1,.856.042.627.627,0,0,1-.041.873A5.051,5.051,0,0,1,308.8,235.967Z" transform="translate(-305.232 -233.742)" fill="#fff"/>
      </g>
      <g id="그룹_3152" data-name="그룹 3152" transform="translate(257.915 152.954)">
        <path id="패스_6391" data-name="패스 6391" d="M283.649,231.956a12.359,12.359,0,0,1-11.459-8.025.622.622,0,0,1,.348-.8.6.6,0,0,1,.783.355,10.989,10.989,0,0,0,20.657-.008.6.6,0,0,1,.783-.356.622.622,0,0,1,.349.8A12.357,12.357,0,0,1,283.649,231.956Z" transform="translate(-272.149 -223.082)" fill="#fff"/>
      </g>
      <g id="그룹_3156" data-name="그룹 3156" transform="translate(253.338 133.05)">
        <g id="그룹_3153" data-name="그룹 3153" transform="translate(3.283 0)">
          <path id="패스_6392" data-name="패스 6392" d="M267.442,156.71a.612.612,0,0,1-.606-.612v-.035c0-.028,0-.055,0-.083a12.911,12.911,0,1,1,25.817,0c0,.007,0,.032,0,.04a.606.606,0,1,1-1.213-.006c0-.007,0-.032,0-.04a11.7,11.7,0,1,0-23.392.006l0,.106a.613.613,0,0,1-.6.624Z" transform="translate(-266.833 -142.822)" fill="#fff"/>
        </g>
        <g id="그룹_3154" data-name="그룹 3154" transform="translate(0 12.55)">
          <path id="패스_6393" data-name="패스 6393" d="M258.522,202.028H258.5A5.08,5.08,0,0,1,253.338,197c0-2.1,1.294-3.567,3.146-3.567a3.422,3.422,0,0,1,.9.123.619.619,0,0,1,.429.757.6.6,0,0,1-.742.437,2.245,2.245,0,0,0-.59-.08c-1.335,0-1.933,1.171-1.933,2.331a3.9,3.9,0,0,0,3.995,3.8.618.618,0,0,1-.024,1.236Z" transform="translate(-253.338 -193.429)" fill="#fff"/>
        </g>
        <g id="그룹_3155" data-name="그룹 3155" transform="translate(26.366 12.55)">
          <path id="패스_6394" data-name="패스 6394" d="M362.315,202.019a.618.618,0,0,1-.038-1.235A3.831,3.831,0,0,0,366.131,197c0-1.16-.6-2.331-1.933-2.331a2.205,2.205,0,0,0-.285.019.608.608,0,0,1-.678-.535.616.616,0,0,1,.525-.691,3.421,3.421,0,0,1,.438-.029c1.852,0,3.146,1.467,3.146,3.567a5.075,5.075,0,0,1-4.99,5.021Z" transform="translate(-361.709 -193.429)" fill="#fff"/>
        </g>
      </g>
      <g id="그룹_3157" data-name="그룹 3157" transform="translate(267.344 129.827)">
        <path id="패스_6395" data-name="패스 6395" d="M314.367,134.294l-.051,0a.61.61,0,0,1-.542-.484c-.006-.027-.613-2.745-2.263-2.745a.618.618,0,0,1,0-1.236,3.482,3.482,0,0,1,3,2.395,2.793,2.793,0,0,1,2.16-1.238.618.618,0,0,1,0,1.236c-1.046,0-1.734,1.669-1.741,1.686A.607.607,0,0,1,314.367,134.294Z" transform="translate(-310.905 -129.827)" fill="#fff"/>
      </g>
      <g id="그룹_3160" data-name="그룹 3160" transform="translate(262.797 148.676)">
        <g id="그룹_3158" data-name="그룹 3158" transform="translate(11.419 0)">
          <path id="패스_6396" data-name="패스 6396" d="M340.061,208.936a.918.918,0,0,1-.909-.927v-1.251a.909.909,0,1,1,1.819,0v1.251A.918.918,0,0,1,340.061,208.936Z" transform="translate(-339.152 -205.831)" fill="#fff"/>
        </g>
        <g id="그룹_3159" data-name="그룹 3159" transform="translate(0 0)">
          <path id="패스_6397" data-name="패스 6397" d="M293.125,208.936a.918.918,0,0,1-.909-.927v-1.251a.909.909,0,1,1,1.818,0v1.251A.918.918,0,0,1,293.125,208.936Z" transform="translate(-292.216 -205.831)" fill="#fff"/>
        </g>
      </g>
    </g>
    <rect id="사각형_13918" data-name="사각형 13918" width="32" height="32" fill="#fff" opacity="0"/>
  </g>
  <text id="_1살_이하" data-name="1살 이하" transform="translate(26 59)" fill="#fff" font-size="9" font-family="SegoeUI, Segoe UI" letter-spacing="-0.05em"><tspan x="-16.258" y="0">1</tspan><tspan y="0" font-family="MalgunGothic, Malgun Gothic">살</tspan><tspan y="0"> </tspan><tspan y="0" font-family="MalgunGothic, Malgun Gothic">이하</tspan></text>
</svg>
