<svg xmlns="http://www.w3.org/2000/svg" width="22" height="22" viewBox="0 0 22 22"><defs><style>.a,.b{fill:#2b428e;}.a{opacity:0;}</style></defs><path class="a" d="M0,0H22V22H0Z"/><g transform="translate(-75 -59.727)"><path class="b" d="M95.68,67.935l-9.2-7.046a.788.788,0,0,0-.96,0l-9.2,7.046a.823.823,0,0,0-.32.654v1.838a.808.808,0,0,0,.8.817h0a.39.39,0,0,1,.25.094V79.3a1.44,1.44,0,0,0,1.45,1.426H83a.455.455,0,0,0,.45-.46v-5.1a.18.18,0,0,1,.151-.06h4.8a.217.217,0,0,1,.15.051v5.105a.455.455,0,0,0,.45.46h4.5A1.44,1.44,0,0,0,94.95,79.3V71.341a.389.389,0,0,1,.25-.1.808.808,0,0,0,.8-.817V68.589A.822.822,0,0,0,95.68,67.935Zm-.48,2.491h-.519a.394.394,0,0,1-.25-.09l-1.868-1.53A.4.4,0,0,0,92,68.87h0a.414.414,0,0,0,.062.574l1.788,1.464a.411.411,0,0,1,.15.319l.05.027V79.3a.531.531,0,0,1-.55.507H89.45V75.162a1.013,1.013,0,0,0-1.05-.97H83.6a1.013,1.013,0,0,0-1.05.97v4.646H78.5a.531.531,0,0,1-.55-.507V71.254l.05-.027a.412.412,0,0,1,.15-.319l1.788-1.464A.414.414,0,0,0,80,68.871h0a.4.4,0,0,0-.562-.063l-1.868,1.53a.394.394,0,0,1-.25.09H76.8V68.793a.412.412,0,0,1,.16-.327l8.8-6.739a.394.394,0,0,1,.48,0l8.8,6.739a.412.412,0,0,1,.16.327Z" transform="translate(0 0)"/><path class="b" d="M92.651,72.526A1.253,1.253,0,0,0,91.41,73.6H88.124a1.253,1.253,0,0,0-1.242-1.071A1.332,1.332,0,0,0,85.6,73.955a1.6,1.6,0,0,0,.407,1.071A1.6,1.6,0,0,0,85.6,76.1a1.332,1.332,0,0,0,1.282,1.429,1.253,1.253,0,0,0,1.242-1.071H91.41a1.253,1.253,0,0,0,1.242,1.071A1.332,1.332,0,0,0,93.933,76.1a1.6,1.6,0,0,0-.407-1.071,1.6,1.6,0,0,0,.407-1.071A1.332,1.332,0,0,0,92.651,72.526Zm.641,3.569a.645.645,0,1,1-1.282,0,.34.34,0,0,0-.321-.357H87.844a.342.342,0,0,0-.321.354.645.645,0,1,1-.641-.712v-.714a.718.718,0,1,1,.641-.714.34.34,0,0,0,.321.357H91.69a.342.342,0,0,0,.321-.354.645.645,0,1,1,.641.712v.714A.648.648,0,0,1,93.292,76.095Z" transform="translate(-3.967 -5.775)"/></g></svg>