<svg xmlns="http://www.w3.org/2000/svg" width="22" height="22" viewBox="0 0 22 22"><defs><style>.a{fill:#fff;opacity:0;}.b{fill:none;}.c,.d{stroke:none;}.d{fill:#2b428e;}</style></defs><rect class="a" width="22" height="22"/><g class="b" transform="translate(19.667 1) rotate(90)"><path class="c" d="M9.143,1.429a1,1,0,0,1,1.715,0l8.234,13.723a1,1,0,0,1-.857,1.514H1.766a1,1,0,0,1-.857-1.514Z"/><path class="d" d="M 9.999845504760742 1.943909645080566 L 10 1.94365119934082 L 1.766189575195313 15.66666126251221 L 18.23381042480469 15.66667175292969 L 9.999845504760742 1.943909645080566 M 10 0.9436454772949219 C 10.33164501190186 0.9436454772949219 10.66329002380371 1.10548210144043 10.85748958587646 1.42915153503418 L 19.09130096435547 15.15217113494873 C 19.49122047424316 15.81869125366211 19.01110076904297 16.66666030883789 18.23381042480469 16.66666030883789 L 1.766189575195313 16.66666030883789 C 0.9888992309570313 16.66666030883789 0.5087795257568359 15.81869125366211 0.9087009429931641 15.15217113494873 L 9.142510414123535 1.42915153503418 C 9.336709976196289 1.10548210144043 9.668354988098145 0.9436454772949219 10 0.9436454772949219 Z"/></g></svg>