<svg xmlns="http://www.w3.org/2000/svg" width="26" height="26" viewBox="0 0 26 26"><defs><style>.a,.b{fill:#fff;}.b{opacity:0;}</style></defs><path class="a" d="M548.349,259.025a.7.7,0,0,0-.1.02l-.005-.02-14.828,2.6h0a.369.369,0,0,0-.052.01l-.094.015v0a.69.69,0,0,0-.551.668v12.141a5.382,5.382,0,0,0-4.468.386c-2.327,1.177-3.576,3.395-2.789,4.953s3.313,1.869,5.64.695c1.961-.992,3.153-2.717,3.009-4.171h0v-8.281l13.545-2.445v8.864a5.381,5.381,0,0,0-4.468.386c-2.327,1.177-3.578,3.395-2.789,4.953s3.313,1.869,5.64.695c1.961-.992,3.15-2.717,3.009-4.171v-16.6A.7.7,0,0,0,548.349,259.025Z" transform="translate(-524.14 -257.942)"/><rect class="b" width="26" height="26"/></svg>