<svg xmlns="http://www.w3.org/2000/svg" width="95" height="95" viewBox="0 0 95 95"><defs><style>.a,.b{fill:#e16a49;}.a{opacity:0;}</style></defs><rect class="a" width="95" height="95" transform="translate(0 0)"/><g transform="translate(-141.697 -578.814)"><g transform="translate(165.469 578.814)"><path class="b" d="M671.04,211.4c-6.3,0-11.5-2.608-12.952-7.082a8.156,8.156,0,0,1-.365-1.8,1.112,1.112,0,0,1,2.215-.194,5.947,5.947,0,0,0,.266,1.311c1.643,5.076,9.7,7.047,17.97,4.39,5.125-1.648,9.328-4.776,11.244-8.371a9.379,9.379,0,0,1,5.973-4.6l24.508-6.279a4.126,4.126,0,1,0-2.537-7.837l-23.569,9.175a9.506,9.506,0,0,1-5.745.383,1.108,1.108,0,1,1,.53-2.151,7.3,7.3,0,0,0,4.406-.295l23.569-9.175a6.344,6.344,0,1,1,3.9,12.046L695.945,197.2a7.148,7.148,0,0,0-4.563,3.5c-2.181,4.09-6.864,7.619-12.525,9.439A25.677,25.677,0,0,1,671.04,211.4Z" transform="translate(-657.008 -178.433)"/><path class="b" d="M671.04,206.809c-1.024,0-6.723-.156-8.705-3.555a16.037,16.037,0,0,0-1.858-2.316c-2.232-2.487-5.6-6.246-1.61-10.431a6.135,6.135,0,0,1,3.43-1.76,3.733,3.733,0,0,0,2.618-1.514,13.914,13.914,0,0,1,9.172-4.645,6.324,6.324,0,0,1,5.133,1.965,20.95,20.95,0,0,0,4.222,3.429c1.807,1.2,3.515,2.338,4.229,4.5.516,1.559-.113,3.807-1.724,6.167a19.448,19.448,0,0,1-14.718,8.161C671.2,206.809,671.171,206.809,671.04,206.809Zm3.439-22.014c-.1,0-.193,0-.291.007a11.73,11.73,0,0,0-7.493,3.759,5.92,5.92,0,0,1-3.9,2.345,3.983,3.983,0,0,0-2.321,1.129c-2.408,2.523-.981,4.489,1.656,7.427a17.518,17.518,0,0,1,2.124,2.68c1.224,2.1,5.341,2.479,6.863,2.452a17.176,17.176,0,0,0,12.988-7.194c1.319-1.932,1.677-3.546,1.451-4.227-.474-1.432-1.681-2.235-3.353-3.348a22.73,22.73,0,0,1-4.638-3.788A3.97,3.97,0,0,0,674.479,184.8Z" transform="translate(-657.013 -178.423)"/><path class="b" d="M677.138,201.234a1.107,1.107,0,0,1-.588-2.047c3.141-1.954,4.272-4.712,4.041-5.408a1.111,1.111,0,0,1,2.111-.695c.728,2.2-1.55,5.851-4.976,7.982A1.113,1.113,0,0,1,677.138,201.234Z" transform="translate(-656.898 -178.4)"/><path class="b" d="M670.612,197.448a1.109,1.109,0,0,1-1.112-1.108V195.9a1.112,1.112,0,0,1,2.223,0v.443A1.11,1.11,0,0,1,670.612,197.448Z" transform="translate(-656.937 -178.394)"/><path class="b" d="M672.711,192.586a1.11,1.11,0,0,1-1.112-1.108v-.443a1.112,1.112,0,0,1,2.223,0v.443A1.11,1.11,0,0,1,672.711,192.586Z" transform="translate(-656.925 -178.405)"/><path class="b" d="M668.733,215.182a1.11,1.11,0,0,1-1.112-1.108v-.443a1.112,1.112,0,0,1,2.223,0v.443A1.109,1.109,0,0,1,668.733,215.182Z" transform="translate(-656.949 -178.351)"/><path class="b" d="M662.952,214.7a1.11,1.11,0,0,1-1.112-1.108v-.443a1.112,1.112,0,0,1,2.223,0v.443A1.11,1.11,0,0,1,662.952,214.7Z" transform="translate(-656.984 -178.352)"/><path class="b" d="M671,202.586a1.109,1.109,0,0,1-1.112-1.108v-.443a1.111,1.111,0,0,1,2.222,0v.443A1.109,1.109,0,0,1,671,202.586Z" transform="translate(-656.935 -178.381)"/><path class="b" d="M676.471,196.619a1.11,1.11,0,0,1-1.112-1.108v-.443a1.112,1.112,0,0,1,2.223,0v.443A1.11,1.11,0,0,1,676.471,196.619Z" transform="translate(-656.902 -178.396)"/><path class="b" d="M680.777,222.53a1.11,1.11,0,0,1-1.112-1.108v-.443a1.112,1.112,0,0,1,2.223,0v.443A1.11,1.11,0,0,1,680.777,222.53Z" transform="translate(-656.876 -178.333)"/><path class="b" d="M683.172,230.2a1.11,1.11,0,0,1-1.112-1.108v-.443a1.112,1.112,0,0,1,2.223,0v.443A1.11,1.11,0,0,1,683.172,230.2Z" transform="translate(-656.861 -178.315)"/><path class="b" d="M675.88,227.1A1.109,1.109,0,0,1,674.768,226v-.443a1.112,1.112,0,0,1,2.223,0V226A1.11,1.11,0,0,1,675.88,227.1Z" transform="translate(-656.906 -178.322)"/><path class="b" d="M674.976,218.055a1.11,1.11,0,0,1-1.112-1.108V216.5a1.112,1.112,0,0,1,2.223,0v.443A1.109,1.109,0,0,1,674.976,218.055Z" transform="translate(-656.911 -178.344)"/><path class="b" d="M671,220.872a1.109,1.109,0,0,1-1.112-1.108v-.443a1.111,1.111,0,0,1,2.222,0v.443A1.108,1.108,0,0,1,671,220.872Z" transform="translate(-656.935 -178.337)"/><path class="b" d="M664.167,221.093a1.109,1.109,0,0,1-1.112-1.108v-.443a1.112,1.112,0,0,1,2.223,0v.443A1.109,1.109,0,0,1,664.167,221.093Z" transform="translate(-656.976 -178.337)"/><path class="b" d="M667.814,226.883a1.109,1.109,0,0,1-1.112-1.108v-.443a1.112,1.112,0,0,1,2.223,0v.443A1.11,1.11,0,0,1,667.814,226.883Z" transform="translate(-656.954 -178.323)"/><path class="b" d="M664.921,198.553a1.11,1.11,0,0,1-1.112-1.108V197a1.112,1.112,0,0,1,2.223,0v.443A1.109,1.109,0,0,1,664.921,198.553Z" transform="translate(-656.972 -178.391)"/><path class="b" d="M681.053,214.077a1.11,1.11,0,0,1-1.112-1.108v-.443a1.112,1.112,0,0,1,2.223,0v.443A1.109,1.109,0,0,1,681.053,214.077Z" transform="translate(-656.874 -178.354)"/><path class="b" d="M679.417,208.939a1.11,1.11,0,0,1-1.112-1.108v-.443a1.112,1.112,0,0,1,2.223,0v.443A1.11,1.11,0,0,1,679.417,208.939Z" transform="translate(-656.884 -178.366)"/><path class="b" d="M685.639,216.508a1.11,1.11,0,0,1-1.112-1.108v-.443a1.112,1.112,0,0,1,2.223,0v.443A1.11,1.11,0,0,1,685.639,216.508Z" transform="translate(-656.847 -178.348)"/><path class="b" d="M689.581,211.34a1.109,1.109,0,0,1-1.112-1.108v-.443a1.112,1.112,0,0,1,2.223,0v.443A1.11,1.11,0,0,1,689.581,211.34Z" transform="translate(-656.823 -178.36)"/><path class="b" d="M690.465,223.679a1.109,1.109,0,0,1-1.112-1.108v-.443a1.112,1.112,0,0,1,2.223,0v.443A1.11,1.11,0,0,1,690.465,223.679Z" transform="translate(-656.817 -178.331)"/><path class="b" d="M703.051,191.3a1.107,1.107,0,0,1-.283-2.179l9.957-2.615a1.108,1.108,0,1,1,.567,2.142l-9.957,2.616A1.106,1.106,0,0,1,703.051,191.3Z" transform="translate(-656.742 -178.414)"/></g><g transform="translate(143.197 623.301)"><path class="b" d="M696.366,250.034h-36.6c-4.063,0-7.366-3.036-7.366-6.77s3.3-6.769,7.366-6.769h36.6c4.061,0,7.366,3.036,7.366,6.769S700.428,250.034,696.366,250.034Zm-36.6-11.391a4.638,4.638,0,1,0,0,9.243h36.6a4.638,4.638,0,1,0,0-9.243Z" transform="translate(-642.5 -222.78)"/><path class="b" d="M703.193,271.894a9.448,9.448,0,0,1-3.973-.836l-.55-.257a21.006,21.006,0,0,0-8.833-1.859H667.28a21,21,0,0,0-8.832,1.859l-.551.257a9.444,9.444,0,0,1-3.973.836c-3.844,0-6.97-2.1-6.97-4.688a8.416,8.416,0,0,1,1.217-4.313c1.758-2.985,5.837-10.5,5.747-15.794-.005-.349.331-.659.826-.761a1.5,1.5,0,0,1,1.319.318,5.958,5.958,0,0,0,4.2,1.522h36.6a5.948,5.948,0,0,0,4.195-1.522,1.5,1.5,0,0,1,1.319-.318c.5.1.831.412.827.761-.091,5.292,3.988,12.809,5.747,15.794a8.407,8.407,0,0,1,1.218,4.313C710.165,269.791,707.037,271.894,703.193,271.894ZM667.28,267.37h22.557A24.176,24.176,0,0,1,700,269.51l.55.256a6.263,6.263,0,0,0,2.64.556c2.555,0,4.633-1.4,4.633-3.115a7.286,7.286,0,0,0-1.054-3.734c-2-3.4-5.2-9.479-5.809-14.563a10.042,10.042,0,0,1-4.1.841h-36.6a10.05,10.05,0,0,1-4.1-.84c-.614,5.083-3.81,11.165-5.81,14.562a7.286,7.286,0,0,0-1.054,3.734c0,1.718,2.079,3.115,4.633,3.115a6.274,6.274,0,0,0,2.64-.555l.551-.258A24.187,24.187,0,0,1,667.28,267.37Z" transform="translate(-642.994 -222.756)"/><path class="b" d="M655.283,263.059a1.754,1.754,0,0,1-.329-.03c-.621-.115-.974-.526-.793-.918a48.926,48.926,0,0,0,3.069-8.363c.1-.4.7-.68,1.336-.616s1.074.442.975.846a50.026,50.026,0,0,1-3.137,8.551A1.227,1.227,0,0,1,655.283,263.059Z" transform="translate(-642.345 -222.74)"/><path class="b" d="M684.34,263.056H668.616a4.341,4.341,0,1,1,0-8.651H684.34a4.341,4.341,0,1,1,0,8.651Zm-15.724-7.048a2.733,2.733,0,1,0,0,5.446H684.34a2.733,2.733,0,1,0,0-5.446Z" transform="translate(-641.457 -222.737)"/><path class="b" d="M713.046,273.21H644.492a1.078,1.078,0,1,1,0-2.149h68.554a1.078,1.078,0,1,1,0,2.149Z" transform="translate(-643.323 -222.697)"/><path class="b" d="M698.864,239.344a1.336,1.336,0,0,1-.207-.017,1.086,1.086,0,0,1-.944-1.247c.371-1.9-.779-3.191-2.684-5.132a12.832,12.832,0,0,1-3.581-5.152,3.613,3.613,0,0,0-1.885-2.471c-1.452-.667-3.855-.392-7.139.816-3.957,1.453-7.948.825-10.864.367a15.974,15.974,0,0,0-2.561-.292c-2.522.1-5.647,2.862-5.868,5.19-.3,3.187-4,6.785-4.156,6.937a1.244,1.244,0,0,1-1.652.037,1.015,1.015,0,0,1-.041-1.52c.914-.883,3.329-3.62,3.521-5.642.323-3.4,4.411-7.009,8.1-7.15a17.427,17.427,0,0,1,3.052.321c2.642.416,6.258.985,9.6-.245,4.042-1.485,6.919-1.721,9.051-.743a5.743,5.743,0,0,1,3.1,3.833,11.063,11.063,0,0,0,3.059,4.273c1.888,1.924,3.841,3.913,3.249,6.951A1.147,1.147,0,0,1,698.864,239.344Z" transform="translate(-642.087 -222.813)"/><path class="b" d="M668.706,232.067h-.774a1.078,1.078,0,1,1,0-2.149h.774a1.078,1.078,0,1,1,0,2.149Z" transform="translate(-641.198 -222.796)"/><path class="b" d="M674.506,235.378h-.774a1.078,1.078,0,1,1,0-2.149h.774a1.078,1.078,0,1,1,0,2.149Z" transform="translate(-640.672 -222.788)"/><path class="b" d="M686.818,235.855h-.774a1.078,1.078,0,1,1,0-2.149h.774a1.078,1.078,0,1,1,0,2.149Z" transform="translate(-639.556 -222.786)"/><path class="b" d="M681.847,232.067h-.775a1.078,1.078,0,1,1,0-2.149h.775a1.078,1.078,0,1,1,0,2.149Z" transform="translate(-640.007 -222.796)"/></g></g></svg>