<svg xmlns="http://www.w3.org/2000/svg" width="20" height="20" viewBox="0 0 20 20"><defs><style>.a{fill:#a5a4a4;opacity:0;}.b,.d{fill:#2b428e;}.c,.d{stroke:none;}</style></defs><rect class="a" width="20" height="20"/><g class="b" transform="translate(18.667) rotate(90)"><path class="c" d="M 18.23381042480469 16.16667175292969 L 1.766190052032471 16.16667175292969 C 1.50311005115509 16.16667175292969 1.374269962310791 15.98928165435791 1.331089973449707 15.91301155090332 C 1.287909984588623 15.83675098419189 1.20209002494812 15.63501167297363 1.337440013885498 15.40942096710205 L 9.571260452270508 1.68640124797821 C 9.702710151672363 1.467311263084412 9.91487979888916 1.44365119934082 10 1.44365119934082 C 10.08512020111084 1.44365119934082 10.29728984832764 1.467311263084412 10.42873954772949 1.68640124797821 L 18.66254997253418 15.40942096710205 C 18.79791069030762 15.63501167297363 18.71208953857422 15.83675098419189 18.66890907287598 15.91301155090332 C 18.62573051452637 15.98928165435791 18.49688911437988 16.16667175292969 18.23381042480469 16.16667175292969 Z"/><path class="d" d="M 9.999845504760742 1.943909645080566 L 10 1.94365119934082 L 1.766189575195313 15.66666126251221 L 18.23381042480469 15.66667175292969 L 9.999845504760742 1.943909645080566 M 10 0.9436454772949219 C 10.33164501190186 0.9436454772949219 10.66329002380371 1.10548210144043 10.85748958587646 1.42915153503418 L 19.09130096435547 15.15217113494873 C 19.49122047424316 15.81869125366211 19.01110076904297 16.66666030883789 18.23381042480469 16.66666030883789 L 1.766189575195313 16.66666030883789 C 0.9888992309570313 16.66666030883789 0.5087795257568359 15.81869125366211 0.9087009429931641 15.15217113494873 L 9.142510414123535 1.42915153503418 C 9.336709976196289 1.10548210144043 9.668354988098145 0.9436454772949219 10 0.9436454772949219 Z"/></g></svg>