<svg xmlns="http://www.w3.org/2000/svg" width="22" height="22" viewBox="0 0 22 22"><defs><style>.a,.b{fill:#2b428e;}.a{opacity:0;}.b,.c{stroke:#2b428e;stroke-miterlimit:10;}.c{fill:#fff;}</style></defs><path class="a" d="M0,0H22V22H0Z"/><g transform="translate(-119.808 -59.966)"><path class="b" d="M127.631,79.6h-4.764a1,1,0,0,1-1.059-.928V68.457a.894.894,0,0,1,.416-.737l7.941-5.563a1.18,1.18,0,0,1,1.287,0l7.941,5.563a.894.894,0,0,1,.415.737V78.671a1,1,0,0,1-1.059.928h-4.765" transform="translate(0 0)"/><path class="c" d="M134.855,92.835l.011-5.931a.938.938,0,0,1,.947-.928H139.6a.938.938,0,0,1,.947.928l.035,5.931" transform="translate(-6.871 -12.869)"/></g></svg>