<svg xmlns="http://www.w3.org/2000/svg" width="20" height="20" viewBox="0 0 20 20"><defs><style>.a,.b{fill:#2b428e;}.a{opacity:0;}</style></defs><rect class="a" width="20" height="20"/><g transform="translate(-5 -5)"><path class="b" d="M15,25A10,10,0,1,1,25,15,10.011,10.011,0,0,1,15,25ZM15,6.25A8.75,8.75,0,1,0,23.75,15,8.76,8.76,0,0,0,15,6.25Z"/><path class="b" d="M150.939,76.875a.938.938,0,1,1,.937-.937A.938.938,0,0,1,150.939,76.875Z" transform="translate(-135.939 -65.625)"/><path class="b" d="M155.625,151.875a.626.626,0,0,1-.625-.625v-5.625a.625.625,0,0,1,1.25,0v5.625A.626.626,0,0,1,155.625,151.875Z" transform="translate(-140.625 -131.25)"/></g></svg>