<svg xmlns="http://www.w3.org/2000/svg" width="22" height="22" viewBox="0 0 22 22"><defs><style>.a{fill:#fff;opacity:0.02;}.b{fill:none;stroke:#2b428e;stroke-linecap:round;stroke-linejoin:round;}</style></defs><rect class="a" width="22" height="22"/><g transform="translate(-378 -242)"><g transform="translate(379 245)"><circle class="b" cx="3.333" cy="3.333" r="3.333" transform="translate(2.667)"/><path class="b" d="M391,262.667h0A4.667,4.667,0,0,0,386.333,258h-2.667A4.667,4.667,0,0,0,379,262.667V266" transform="translate(-379 -249.333)"/></g><g transform="translate(389.667 252.333)"><path class="b" d="M398.333,264H396a1,1,0,0,0-1,1h0a1,1,0,0,0,1,1h1.333a1,1,0,0,0,1-1v-7.667l6-1.333v7.667a1,1,0,0,1-1,1H402a1,1,0,0,1-1-1h0a1,1,0,0,1,1-1h2.333" transform="translate(-395 -256)"/><line class="b" y1="1.467" x2="5.911" transform="translate(3.333 2.533)"/></g></g></svg>